<svg xmlns="http://www.w3.org/2000/svg" xmlns:xlink="http://www.w3.org/1999/xlink" width="50" zoomAndPan="magnify" viewBox="0 0 37.5 37.499999" height="50" preserveAspectRatio="xMidYMid meet" version="1.0"><defs><clipPath id="cf3f15d9fc"><path d="M 5.769531 6.914062 L 30.898438 6.914062 L 30.898438 29.859375 L 5.769531 29.859375 Z M 5.769531 6.914062 " clip-rule="nonzero"/></clipPath><clipPath id="32f0acc6c4"><path d="M 6.101562 8.144531 L 30.898438 8.144531 L 30.898438 29.859375 L 6.101562 29.859375 Z M 6.101562 8.144531 " clip-rule="nonzero"/></clipPath></defs><g clip-path="url(#cf3f15d9fc)"><path fill="#ea1135" d="M 6.097656 26.058594 L 16.121094 8.210938 C 17.09375 6.484375 19.574219 6.484375 20.546875 8.210938 L 30.570312 26.058594 C 31.523438 27.757812 30.300781 29.859375 28.359375 29.859375 L 8.308594 29.859375 C 6.367188 29.859375 5.144531 27.757812 6.097656 26.058594 " fill-opacity="1" fill-rule="nonzero"/></g><g clip-path="url(#32f0acc6c4)"><path fill="#c4021a" d="M 30.570312 26.058594 L 20.546875 8.210938 C 20.011719 7.261719 28.105469 24.789062 28.105469 24.789062 C 29.058594 26.484375 27.835938 28.585938 25.894531 28.585938 L 6.113281 28.585938 C 6.539062 29.328125 7.335938 29.859375 8.308594 29.859375 L 28.359375 29.859375 C 30.300781 29.859375 31.523438 27.757812 30.570312 26.058594 " fill-opacity="1" fill-rule="nonzero"/></g><path fill="#ffffff" d="M 18.335938 23.273438 C 17.554688 23.273438 16.921875 23.910156 16.921875 24.691406 C 16.921875 25.476562 17.554688 26.109375 18.335938 26.109375 C 19.113281 26.109375 19.746094 25.476562 19.746094 24.691406 C 19.746094 23.910156 19.113281 23.273438 18.335938 23.273438 " fill-opacity="1" fill-rule="nonzero"/><path fill="#ffffff" d="M 18.335938 11.9375 C 17.097656 11.9375 16.125 13.003906 16.238281 14.242188 L 16.796875 20.449219 C 16.867188 21.25 17.535156 21.859375 18.335938 21.859375 C 19.132812 21.859375 19.800781 21.25 19.871094 20.449219 L 20.429688 14.242188 C 20.542969 13.003906 19.570312 11.9375 18.335938 11.9375 " fill-opacity="1" fill-rule="nonzero"/></svg>