<svg width="86" height="87" viewBox="0 0 86 87" fill="none" xmlns="http://www.w3.org/2000/svg">
<rect width="86" height="86.0811" rx="43" fill="#A700B6"/>
<path d="M26 39.7094C26 34.347 29.9427 30 34.8062 30H41.6813C46.5448 30 50.4875 34.347 50.4875 39.7094C50.4875 45.0718 46.5448 49.419 41.6813 49.419H36.4946V54.1063C36.4946 54.1063 26 51.7626 26 39.7094Z" fill="#F4F5F6"/>
<path fill-rule="evenodd" clip-rule="evenodd" d="M43.9087 51.0861C45.1747 52.4264 46.8938 53.25 48.7874 53.25H51.3624V56.9999C51.3624 56.9999 60.9825 55.125 60.9825 45.4825C60.9825 41.1925 57.8284 37.7148 53.9376 37.7148H52.0051C52.1562 38.3476 52.2366 39.0119 52.2366 39.697C52.2366 45.2845 48.6692 49.9534 43.9087 51.0861Z" fill="#F4F5F6"/>
</svg>
