<svg width="43" height="38" viewBox="0 0 43 38" fill="none" xmlns="http://www.w3.org/2000/svg">
<path d="M31.8191 0.671376L31.6696 0.5H31.4423H21.357H11.2691H11.0417L10.8923 0.671376L1.62316 11.3003L1.34961 11.614L1.60848 11.9399L20.9654 36.3102L21.357 36.8032L21.7485 36.3102L41.1029 11.9399L41.3617 11.614L41.0882 11.3003L31.8191 0.671376Z" fill="#ED6FF7" stroke="white"/>
<path d="M31.4423 1H21.357H11.2691L2 11.629L21.357 35.9992L40.7114 11.629L31.4423 1Z" fill="#ED6FF7"/>
<path d="M21.3567 11.3525H11.6782L21.3567 35.9998L31.0326 11.3525H21.3567Z" fill="#E249F2"/>
<path d="M21.3567 1L11.6782 11.352H31.0326L21.3567 1Z" fill="#FA6AFF"/>
<path d="M2 11.629H11.6785L21.357 1H11.2691L2 11.629Z" fill="#E249F2"/>
<path d="M32.3214 11.352H41.9999L32.7308 1H22.6455L32.3214 11.352Z" fill="#F989FF"/>
</svg>
