<svg width="62" height="62" viewBox="0 0 62 62" fill="none" xmlns="http://www.w3.org/2000/svg">
<rect x="0.285706" y="0.378418" width="61.4286" height="61.4865" rx="10" fill="#A700B6"/>
<path d="M18.7714 28.3548C18.7714 30.1277 19.5796 31.7189 20.8399 32.7811C18.5162 34.0863 16.9286 36.5694 16.9286 39.4224V39.6724H17.1786H19.0214H19.2714V39.4224C19.2714 36.4945 21.6255 34.1386 24.55 34.1386C27.4746 34.1386 29.8286 36.4945 29.8286 39.4224V39.6724H30.0786H31.9214H32.1714V39.4224C32.1714 36.4945 34.5255 34.1386 37.45 34.1386C40.3746 34.1386 42.7286 36.4945 42.7286 39.4224V39.6724H42.9786H44.8214H45.0714V39.4224C45.0714 36.5689 43.4842 34.0869 41.161 32.7816C41.7554 32.2828 42.2444 31.6685 42.5978 30.9745C43.011 30.1632 43.2271 29.2658 43.2286 28.3552V28.3548C43.2286 25.1734 40.629 22.571 37.45 22.571C34.271 22.571 31.6714 25.1734 31.6714 28.3548C31.6714 30.1272 32.4791 31.7179 33.7388 32.7802C32.626 33.4003 31.6848 34.2878 31 35.3623C30.3155 34.2881 29.3746 33.4008 28.2621 32.7807C28.856 32.282 29.3447 31.6681 29.6978 30.9745C30.111 30.1632 30.3271 29.2658 30.3286 28.3552V28.3548C30.3286 25.1734 27.729 22.571 24.55 22.571C21.371 22.571 18.7714 25.1734 18.7714 28.3548ZM24.55 24.9156C26.4601 24.9156 27.9857 26.4424 27.9857 28.3548C27.9857 30.2672 26.4601 31.794 24.55 31.794C22.64 31.794 21.1143 30.2672 21.1143 28.3548C21.1143 26.4424 22.64 24.9156 24.55 24.9156ZM37.45 24.9156C39.3601 24.9156 40.8857 26.4424 40.8857 28.3548C40.8857 30.2672 39.3601 31.794 37.45 31.794C35.54 31.794 34.0143 30.2672 34.0143 28.3548C34.0143 26.4424 35.54 24.9156 37.45 24.9156Z" fill="white" stroke="white" stroke-width="0.5"/>
</svg>
