<svg width="62" height="62" viewBox="0 0 62 62" fill="none" xmlns="http://www.w3.org/2000/svg">
<rect x="0.285706" width="61.4286" height="61.4865" rx="10" fill="#A700B6"/>
<path d="M43.2857 40.5811V30.9572C43.2858 30.2877 43.1493 29.6251 42.8846 29.0102C42.6199 28.3953 42.2326 27.841 41.7463 27.3812L32.6881 18.8124C32.2319 18.3807 31.6278 18.1401 31 18.1401C30.3722 18.1401 29.7682 18.3807 29.312 18.8124L20.2537 27.3812C19.7675 27.841 19.3801 28.3953 19.1154 29.0102C18.8507 29.6251 18.7142 30.2877 18.7143 30.9572V40.5811C18.7143 41.2334 18.9732 41.859 19.434 42.3202C19.8948 42.7814 20.5198 43.0405 21.1714 43.0405H40.8286C41.4803 43.0405 42.1052 42.7814 42.566 42.3202C43.0268 41.859 43.2857 41.2334 43.2857 40.5811Z" stroke="white" stroke-width="3" stroke-linecap="round" stroke-linejoin="round"/>
</svg>
