<svg width="12" height="12" viewBox="0 0 12 12" fill="none" xmlns="http://www.w3.org/2000/svg">
<path d="M3.01225 2.17957L5.83694 5.03561L8.64698 2.19437C8.70905 2.12757 8.78383 2.07413 8.86682 2.03726C8.94981 2.00039 9.03932 1.98084 9.12996 1.9798C9.32404 1.9798 9.51017 2.05775 9.64741 2.19651C9.78465 2.33527 9.86174 2.52347 9.86174 2.7197C9.86345 2.81042 9.8468 2.90053 9.81283 2.9845C9.77885 3.06848 9.72826 3.14455 9.66416 3.20804L6.81753 6.04928L9.66416 8.92752C9.78477 9.04682 9.85549 9.20838 9.86174 9.37886C9.86174 9.57509 9.78465 9.76329 9.64741 9.90205C9.51017 10.0408 9.32404 10.1188 9.12996 10.1188C9.0367 10.1227 8.94365 10.1069 8.85673 10.0725C8.7698 10.0382 8.6909 9.98586 8.62503 9.91899L5.83694 7.06295L3.01957 9.91159C2.95774 9.97616 2.88387 10.0277 2.80223 10.0633C2.7206 10.0988 2.6328 10.1177 2.54391 10.1188C2.34983 10.1188 2.1637 10.0408 2.02647 9.90205C1.88923 9.76329 1.81213 9.57509 1.81213 9.37886C1.81042 9.28814 1.82707 9.19804 1.86105 9.11406C1.89502 9.03008 1.94561 8.95402 2.00971 8.89052L4.85635 6.04928L2.00971 3.17105C1.8891 3.05174 1.81838 2.89019 1.81213 2.7197C1.81213 2.52347 1.88923 2.33527 2.02647 2.19651C2.1637 2.05775 2.34983 1.9798 2.54391 1.9798C2.71954 1.98202 2.88785 2.05379 3.01225 2.17957Z" fill="#F8F8F8"/>
</svg>
