<svg width="363" height="90" viewBox="0 0 363 90" fill="none" xmlns="http://www.w3.org/2000/svg">
<path d="M18.8862 57.3333H32.0862C45.9969 57.3333 58.3846 47.0776 58.3846 29.7141C58.3846 13.4676 45.9969 2.19652 32.0862 2.19652H18.8862H14.2154H0V87.8971H18.8862V57.3333ZM28.9385 17.123C34.5231 17.123 40.3108 21.8955 40.3108 29.7141C40.3108 37.9389 34.5231 42.5083 28.9385 42.5083H18.8862V17.123H28.9385ZM261.055 87.9987V2.29805H242.169V55.7086L212.723 2.29805H193.735V87.9987H212.723V34.4866L242.169 87.9987H261.055ZM319.034 18.6462C327.36 18.6462 335.889 22.0986 340.052 31.1357H360.868C354.978 13.366 337.92 0.978027 319.034 0.978027C294.868 0.978027 274.966 20.8801 274.966 45.1484C274.966 69.3151 294.868 89.2172 319.034 89.2172C343.505 89.2172 363 69.4167 363 45.1484V42.2037H320.76V56.4194H342.591C337.92 69.4167 327.36 72.0567 319.034 72.0567C305.428 72.0567 294.055 59.8718 294.055 45.3514C294.055 30.8311 305.428 18.6462 319.034 18.6462Z" fill="white"/>
</svg>
