<svg width="790" height="717" viewBox="0 0 790 717" fill="none" xmlns="http://www.w3.org/2000/svg">
<path d="M526.15 97.619C401.325 -15.7421 191.48 -36.3983 76.0598 68.4222C-39.3606 173.243 -16.6155 363.817 108.209 477.178C189.02 550.567 285.194 566.456 374.37 540.338L373.988 540.586L376.94 539.544C382.954 537.706 388.969 535.82 394.874 533.635C410.73 528.769 434.295 522.115 461.742 517C503.788 509.155 542.225 550.17 574.374 579.366C606.523 608.563 670.822 696.154 686.896 710.752C702.971 725.351 719.046 710.752 735.12 696.154L751.195 681.555L767.27 667.007C783.344 652.359 799.419 637.76 783.344 623.162C767.27 608.563 670.822 550.219 638.673 521.023C606.523 491.826 561.416 456.869 570 418.685C574.483 398.773 580.06 381.245 584.872 367.491C629.706 280.347 619.809 182.677 526.15 97.619Z" fill="white"/>
</svg>
