<svg width="63" height="62" viewBox="0 0 63 62" fill="none" xmlns="http://www.w3.org/2000/svg">
<rect x="0.19751" y="0.0272217" width="62.4396" height="61.4865" rx="10" fill="#A700B6"/>
<path d="M46.5481 28.7474L43.143 27.7474C42.9075 26.9387 42.5838 26.1575 42.1773 25.4174L43.8443 22.3474C43.9069 22.2315 43.9298 22.0989 43.9096 21.9692C43.8895 21.8395 43.8274 21.7196 43.7325 21.6274L41.3032 19.2274C41.2094 19.134 41.0876 19.0729 40.9558 19.0531C40.8239 19.0333 40.6891 19.0558 40.5713 19.1174L37.4711 20.7474C36.7114 20.328 35.9069 19.9927 35.0723 19.7474L34.0558 16.4374C34.0128 16.3154 33.9316 16.21 33.8238 16.1363C33.7161 16.0626 33.5873 16.0245 33.4561 16.0274H30.0205C29.8885 16.028 29.7601 16.07 29.6541 16.1473C29.5481 16.2247 29.4699 16.3333 29.4309 16.4574L28.4145 19.7574C27.5729 20.0014 26.7615 20.3368 25.9953 20.7574L22.9459 19.1374C22.8282 19.0758 22.6933 19.0533 22.5615 19.0731C22.4297 19.0929 22.3078 19.154 22.2141 19.2474L19.7441 21.6174C19.6492 21.7096 19.5871 21.8295 19.567 21.9592C19.5468 22.0889 19.5697 22.2215 19.6323 22.3374L21.2789 25.3374C20.8521 26.088 20.5112 26.8828 20.2625 27.7074L16.898 28.7074C16.7719 28.7457 16.6615 28.8226 16.5829 28.9269C16.5043 29.0312 16.4616 29.1575 16.4609 29.2874V32.6674C16.4616 32.7972 16.5043 32.9235 16.5829 33.0278C16.6615 33.1321 16.7719 33.2091 16.898 33.2474L20.2828 34.2474C20.5342 35.0582 20.8751 35.8395 21.2993 36.5774L19.6323 39.7174C19.5697 39.8333 19.5468 39.9659 19.567 40.0956C19.5871 40.2253 19.6492 40.3452 19.7441 40.4374L22.1734 42.8274C22.2672 42.9207 22.389 42.9818 22.5208 43.0016C22.6527 43.0214 22.7875 42.9989 22.9053 42.9374L26.0461 41.2874C26.7891 41.6818 27.5729 41.9969 28.384 42.2274L29.4004 45.5974C29.4394 45.7215 29.5176 45.8301 29.6236 45.9074C29.7296 45.9847 29.858 46.0268 29.99 46.0274H33.4256C33.5576 46.0268 33.686 45.9847 33.792 45.9074C33.898 45.8301 33.9762 45.7215 34.0152 45.5974L35.0316 42.2174C35.8358 41.9857 36.6127 41.6706 37.3492 41.2774L40.5103 42.9374C40.6281 42.9989 40.7629 43.0214 40.8948 43.0016C41.0266 42.9818 41.1484 42.9207 41.2422 42.8274L43.6715 40.4374C43.7664 40.3452 43.8285 40.2253 43.8486 40.0956C43.8688 39.9659 43.8459 39.8333 43.7833 39.7174L42.096 36.6174C42.4999 35.8901 42.8236 35.1224 43.0616 34.3274L46.4871 33.3274C46.6132 33.2891 46.7236 33.2121 46.8022 33.1078C46.8809 33.0035 46.9236 32.8772 46.9242 32.7474V29.3374C46.9302 29.213 46.8974 29.0899 46.8301 28.9844C46.7629 28.8789 46.6645 28.7962 46.5481 28.7474ZM31.7383 36.5274C30.6326 36.5274 29.5517 36.2048 28.6324 35.6005C27.713 34.9961 26.9965 34.1371 26.5733 33.1321C26.1502 32.1271 26.0395 31.0213 26.2552 29.9544C26.4709 28.8875 27.0034 27.9075 27.7852 27.1383C28.5671 26.3691 29.5632 25.8453 30.6476 25.6331C31.7321 25.4208 32.8562 25.5298 33.8777 25.946C34.8992 26.3623 35.7724 27.0673 36.3867 27.9717C37.0009 28.8762 37.3288 29.9396 37.3288 31.0274C37.3288 32.4861 36.7398 33.885 35.6914 34.9165C34.643 35.9479 33.221 36.5274 31.7383 36.5274Z" fill="#F8F8F8"/>
</svg>
