<svg width="400" height="80" viewBox="0 0 400 80" fill="none" xmlns="http://www.w3.org/2000/svg">
<g clip-path="url(#clip0_461_3801)">
<g clip-path="url(#clip1_461_3801)">
<path d="M26.0264 61.1856L40.2569 52.5911L54.5465 61.2225L50.7596 45.0172L63.3333 34.1077L46.736 32.6728L40.2569 17.3699L33.8369 32.6358L17.2396 34.0707L29.8133 44.9803L26.0264 61.1856Z" fill="#FF34DE"/>
</g>
</g>
<g clip-path="url(#clip2_461_3801)">
<g clip-path="url(#clip3_461_3801)">
<path d="M106.026 61.1856L120.257 52.5911L134.547 61.2225L130.76 45.0172L143.333 34.1077L126.736 32.6728L120.257 17.3699L113.837 32.6358L97.2396 34.0707L109.813 44.9803L106.026 61.1856Z" fill="#FF34DE"/>
</g>
</g>
<g clip-path="url(#clip4_461_3801)">
<g clip-path="url(#clip5_461_3801)">
<path d="M186.026 61.1856L200.257 52.5911L214.547 61.2225L210.76 45.0172L223.333 34.1077L206.736 32.6728L200.257 17.3699L193.837 32.6358L177.24 34.0707L189.813 44.9803L186.026 61.1856Z" fill="#FF34DE"/>
</g>
</g>
<g clip-path="url(#clip6_461_3801)">
<g clip-path="url(#clip7_461_3801)">
<path d="M266.026 61.1856L280.257 52.5911L294.547 61.2225L290.76 45.0172L303.333 34.1077L286.736 32.6728L280.257 17.3699L273.837 32.6358L257.24 34.0707L269.813 44.9803L266.026 61.1856Z" fill="#FF34DE"/>
</g>
</g>
<g clip-path="url(#clip8_461_3801)">
<g clip-path="url(#clip9_461_3801)">
<path d="M346.026 61.1856L360.257 52.5911L374.547 61.2225L370.76 45.0172L383.333 34.1077L366.736 32.6728L360.257 17.3699L353.837 32.6358L337.24 34.0707L349.813 44.9803L346.026 61.1856Z" fill="#FF34DE"/>
</g>
</g>
<defs>
<clipPath id="clip0_461_3801">
<rect width="80" height="80" fill="white"/>
</clipPath>
<clipPath id="clip1_461_3801">
<rect width="80" height="80" fill="white"/>
</clipPath>
<clipPath id="clip2_461_3801">
<rect width="80" height="80" fill="white" transform="translate(80)"/>
</clipPath>
<clipPath id="clip3_461_3801">
<rect width="80" height="80" fill="white" transform="translate(80)"/>
</clipPath>
<clipPath id="clip4_461_3801">
<rect width="80" height="80" fill="white" transform="translate(160)"/>
</clipPath>
<clipPath id="clip5_461_3801">
<rect width="80" height="80" fill="white" transform="translate(160)"/>
</clipPath>
<clipPath id="clip6_461_3801">
<rect width="80" height="80" fill="white" transform="translate(240)"/>
</clipPath>
<clipPath id="clip7_461_3801">
<rect width="80" height="80" fill="white" transform="translate(240)"/>
</clipPath>
<clipPath id="clip8_461_3801">
<rect width="80" height="80" fill="white" transform="translate(320)"/>
</clipPath>
<clipPath id="clip9_461_3801">
<rect width="80" height="80" fill="white" transform="translate(320)"/>
</clipPath>
</defs>
</svg>
