<svg width="1200" height="138" viewBox="0 0 1200 138" fill="none" xmlns="http://www.w3.org/2000/svg">
<g filter="url(#filter0_d_709_7165)">
<path d="M249.273 109H231.453C230.06 109 229.033 108.707 228.373 108.12C227.787 107.46 227.493 106.433 227.493 105.04V51.03H211.323C209.93 51.03 208.903 50.7367 208.243 50.15C207.657 49.49 207.363 48.4633 207.363 47.07V33.76C207.363 32.3667 207.657 31.3767 208.243 30.79C208.903 30.13 209.93 29.8 211.323 29.8H269.403C270.797 29.8 271.787 30.13 272.373 30.79C273.033 31.3767 273.363 32.3667 273.363 33.76V47.07C273.363 48.4633 273.033 49.49 272.373 50.15C271.787 50.7367 270.797 51.03 269.403 51.03H253.233V105.04C253.233 106.433 252.903 107.46 252.243 108.12C251.657 108.707 250.667 109 249.273 109ZM350.624 88.21C350.624 91.5833 350.11 94.6633 349.084 97.45C348.13 100.163 346.37 102.51 343.804 104.49C341.31 106.397 337.827 107.9 333.354 109C328.954 110.1 323.344 110.65 316.524 110.65C309.704 110.65 304.057 110.1 299.584 109C295.11 107.9 291.59 106.397 289.024 104.49C286.53 102.51 284.77 100.163 283.744 97.45C282.79 94.6633 282.314 91.5833 282.314 88.21V50.7C282.314 47.3267 282.79 44.2833 283.744 41.57C284.77 38.7833 286.53 36.4 289.024 34.42C291.59 32.44 295.11 30.9 299.584 29.8C304.057 28.7 309.704 28.15 316.524 28.15C323.344 28.15 328.954 28.7 333.354 29.8C337.827 30.9 341.31 32.44 343.804 34.42C346.37 36.4 348.13 38.7833 349.084 41.57C350.11 44.2833 350.624 47.3267 350.624 50.7V88.21ZM307.284 84.25C307.284 85.7167 307.834 86.9633 308.934 87.99C310.034 88.9433 312.564 89.42 316.524 89.42C320.484 89.42 323.014 88.9433 324.114 87.99C325.214 86.9633 325.764 85.7167 325.764 84.25V54.66C325.764 53.2667 325.214 52.0933 324.114 51.14C323.014 50.1133 320.484 49.6 316.524 49.6C312.564 49.6 310.034 50.1133 308.934 51.14C307.834 52.0933 307.284 53.2667 307.284 54.66V84.25ZM432.057 88.21C432.057 91.5833 431.544 94.6633 430.517 97.45C429.564 100.163 427.804 102.51 425.237 104.49C422.744 106.397 419.297 107.9 414.897 109C410.497 110.1 404.887 110.65 398.067 110.65C391.247 110.65 385.637 110.1 381.237 109C376.837 107.9 373.354 106.397 370.787 104.49C368.294 102.51 366.534 100.163 365.507 97.45C364.554 94.6633 364.077 91.5833 364.077 88.21V33.76C364.077 32.3667 364.37 31.3767 364.957 30.79C365.617 30.13 366.644 29.8 368.037 29.8H385.307C386.7 29.8 387.69 30.13 388.277 30.79C388.937 31.3767 389.267 32.3667 389.267 33.76V83.92C389.267 85.3867 389.817 86.6333 390.917 87.66C392.017 88.6133 394.474 89.09 398.287 89.09C402.174 89.09 404.667 88.6133 405.767 87.66C406.867 86.6333 407.417 85.3867 407.417 83.92V33.76C407.417 32.3667 407.71 31.3767 408.297 30.79C408.957 30.13 409.984 29.8 411.377 29.8H428.097C429.49 29.8 430.48 30.13 431.067 30.79C431.727 31.3767 432.057 32.3667 432.057 33.76V88.21ZM471.557 49.6V63.68H479.807C481.714 63.68 482.997 63.2033 483.657 62.25C484.317 61.2233 484.647 59.9767 484.647 58.51V54.77C484.647 53.3033 484.317 52.0933 483.657 51.14C482.997 50.1133 481.714 49.6 479.807 49.6H471.557ZM467.597 109H450.657C449.264 109 448.237 108.707 447.577 108.12C446.991 107.46 446.697 106.433 446.697 105.04V33.76C446.697 32.3667 446.991 31.3767 447.577 30.79C448.237 30.13 449.264 29.8 450.657 29.8H487.287C495.501 29.8 501.147 31.5233 504.227 34.97C507.381 38.3433 508.957 42.7433 508.957 48.17V53.23C508.957 56.31 508.481 58.95 507.527 61.15C506.647 63.2767 505.071 64.8167 502.797 65.77C506.757 66.21 509.947 67.8233 512.367 70.61C514.861 73.3967 516.107 77.1 516.107 81.72V105.04C516.107 106.433 515.777 107.46 515.117 108.12C514.531 108.707 513.541 109 512.147 109H495.097C493.704 109 492.677 108.707 492.017 108.12C491.431 107.46 491.137 106.433 491.137 105.04V88.21C491.137 86.5967 490.807 85.4233 490.147 84.69C489.561 83.8833 488.497 83.48 486.957 83.48H471.557V105.04C471.557 106.433 471.227 107.46 470.567 108.12C469.981 108.707 468.991 109 467.597 109ZM548.905 109H532.405C531.012 109 529.985 108.707 529.325 108.12C528.739 107.46 528.445 106.433 528.445 105.04V33.76C528.445 32.3667 528.739 31.3767 529.325 30.79C529.985 30.13 531.012 29.8 532.405 29.8H543.845C545.239 29.8 546.412 30.02 547.365 30.46C548.392 30.9 549.382 31.67 550.335 32.77L571.675 57.19V33.76C571.675 32.3667 571.969 31.3767 572.555 30.79C573.215 30.13 574.242 29.8 575.635 29.8H592.135C593.529 29.8 594.519 30.13 595.105 30.79C595.765 31.3767 596.095 32.3667 596.095 33.76V105.04C596.095 106.433 595.765 107.46 595.105 108.12C594.519 108.707 593.529 109 592.135 109H575.635C574.242 109 573.215 108.707 572.555 108.12C571.969 107.46 571.675 106.433 571.675 105.04V91.51L552.865 68.74V105.04C552.865 106.433 552.535 107.46 551.875 108.12C551.289 108.707 550.299 109 548.905 109ZM666.268 109H615.228C613.834 109 612.808 108.707 612.148 108.12C611.561 107.46 611.268 106.433 611.268 105.04V33.76C611.268 32.3667 611.561 31.3767 612.148 30.79C612.808 30.13 613.834 29.8 615.228 29.8H666.268C667.661 29.8 668.651 30.13 669.238 30.79C669.898 31.3767 670.228 32.3667 670.228 33.76V46.63C670.228 48.0233 669.898 49.05 669.238 49.71C668.651 50.2967 667.661 50.59 666.268 50.59H635.908V59.06H657.358C658.751 59.06 659.741 59.39 660.328 60.05C660.988 60.6367 661.318 61.6267 661.318 63.02V74.79C661.318 76.1833 660.988 77.21 660.328 77.87C659.741 78.4567 658.751 78.75 657.358 78.75H635.908V88.21H666.268C667.661 88.21 668.651 88.54 669.238 89.2C669.898 89.7867 670.228 90.7767 670.228 92.17V105.04C670.228 106.433 669.898 107.46 669.238 108.12C668.651 108.707 667.661 109 666.268 109ZM703.59 109H687.2C685.807 109 684.78 108.707 684.12 108.12C683.534 107.46 683.24 106.433 683.24 105.04V33.76C683.24 32.3667 683.534 31.3767 684.12 30.79C684.78 30.13 685.807 29.8 687.2 29.8H704.91C706.084 29.8 707.037 30.0567 707.77 30.57C708.577 31.0833 709.31 31.9267 709.97 33.1L719.87 51.03C720.237 51.69 720.53 52.1667 720.75 52.46C721.044 52.7533 721.41 52.9 721.85 52.9H722.84C723.28 52.9 723.61 52.7533 723.83 52.46C724.124 52.1667 724.454 51.69 724.82 51.03L734.61 33.1C735.27 31.9267 735.967 31.0833 736.7 30.57C737.507 30.0567 738.497 29.8 739.67 29.8H757.49C758.884 29.8 759.874 30.13 760.46 30.79C761.12 31.3767 761.45 32.3667 761.45 33.76V105.04C761.45 106.433 761.12 107.46 760.46 108.12C759.874 108.707 758.884 109 757.49 109H740.55C739.157 109 738.13 108.707 737.47 108.12C736.884 107.46 736.59 106.433 736.59 105.04V66.32L730.1 78.31C729.44 79.5567 728.634 80.4733 727.68 81.06C726.8 81.5733 725.664 81.83 724.27 81.83H719.87C718.477 81.83 717.304 81.5733 716.35 81.06C715.47 80.4733 714.7 79.5567 714.04 78.31L707.55 66.32V105.04C707.55 106.433 707.22 107.46 706.56 108.12C705.974 108.707 704.984 109 703.59 109ZM831.59 109H780.55C779.157 109 778.13 108.707 777.47 108.12C776.883 107.46 776.59 106.433 776.59 105.04V33.76C776.59 32.3667 776.883 31.3767 777.47 30.79C778.13 30.13 779.157 29.8 780.55 29.8H831.59C832.983 29.8 833.973 30.13 834.56 30.79C835.22 31.3767 835.55 32.3667 835.55 33.76V46.63C835.55 48.0233 835.22 49.05 834.56 49.71C833.973 50.2967 832.983 50.59 831.59 50.59H801.23V59.06H822.68C824.073 59.06 825.063 59.39 825.65 60.05C826.31 60.6367 826.64 61.6267 826.64 63.02V74.79C826.64 76.1833 826.31 77.21 825.65 77.87C825.063 78.4567 824.073 78.75 822.68 78.75H801.23V88.21H831.59C832.983 88.21 833.973 88.54 834.56 89.2C835.22 89.7867 835.55 90.7767 835.55 92.17V105.04C835.55 106.433 835.22 107.46 834.56 108.12C833.973 108.707 832.983 109 831.59 109ZM869.023 109H852.523C851.129 109 850.103 108.707 849.443 108.12C848.856 107.46 848.563 106.433 848.563 105.04V33.76C848.563 32.3667 848.856 31.3767 849.443 30.79C850.103 30.13 851.129 29.8 852.523 29.8H863.963C865.356 29.8 866.529 30.02 867.483 30.46C868.509 30.9 869.499 31.67 870.453 32.77L891.793 57.19V33.76C891.793 32.3667 892.086 31.3767 892.673 30.79C893.333 30.13 894.359 29.8 895.753 29.8H912.253C913.646 29.8 914.636 30.13 915.223 30.79C915.883 31.3767 916.213 32.3667 916.213 33.76V105.04C916.213 106.433 915.883 107.46 915.223 108.12C914.636 108.707 913.646 109 912.253 109H895.753C894.359 109 893.333 108.707 892.673 108.12C892.086 107.46 891.793 106.433 891.793 105.04V91.51L872.983 68.74V105.04C872.983 106.433 872.653 107.46 871.993 108.12C871.406 108.707 870.416 109 869.023 109ZM968.785 109H950.965C949.572 109 948.545 108.707 947.885 108.12C947.298 107.46 947.005 106.433 947.005 105.04V51.03H930.835C929.442 51.03 928.415 50.7367 927.755 50.15C927.168 49.49 926.875 48.4633 926.875 47.07V33.76C926.875 32.3667 927.168 31.3767 927.755 30.79C928.415 30.13 929.442 29.8 930.835 29.8H988.915C990.308 29.8 991.298 30.13 991.885 30.79C992.545 31.3767 992.875 32.3667 992.875 33.76V47.07C992.875 48.4633 992.545 49.49 991.885 50.15C991.298 50.7367 990.308 51.03 988.915 51.03H972.745V105.04C972.745 106.433 972.415 107.46 971.755 108.12C971.168 108.707 970.178 109 968.785 109Z" fill="url(#paint0_linear_709_7165)"/>
</g>
<path d="M177.809 69L-0.000924706 69" stroke="white" stroke-width="4"/>
<path d="M1199.94 69L1022.13 69" stroke="white" stroke-width="4"/>
<g filter="url(#filter1_d_709_7165)">
<path d="M249.273 109H231.453C230.06 109 229.033 108.707 228.373 108.12C227.787 107.46 227.493 106.433 227.493 105.04V51.03H211.323C209.93 51.03 208.903 50.7367 208.243 50.15C207.657 49.49 207.363 48.4633 207.363 47.07V33.76C207.363 32.3667 207.657 31.3767 208.243 30.79C208.903 30.13 209.93 29.8 211.323 29.8H269.403C270.797 29.8 271.787 30.13 272.373 30.79C273.033 31.3767 273.363 32.3667 273.363 33.76V47.07C273.363 48.4633 273.033 49.49 272.373 50.15C271.787 50.7367 270.797 51.03 269.403 51.03H253.233V105.04C253.233 106.433 252.903 107.46 252.243 108.12C251.657 108.707 250.667 109 249.273 109ZM350.624 88.21C350.624 91.5833 350.11 94.6633 349.084 97.45C348.13 100.163 346.37 102.51 343.804 104.49C341.31 106.397 337.827 107.9 333.354 109C328.954 110.1 323.344 110.65 316.524 110.65C309.704 110.65 304.057 110.1 299.584 109C295.11 107.9 291.59 106.397 289.024 104.49C286.53 102.51 284.77 100.163 283.744 97.45C282.79 94.6633 282.314 91.5833 282.314 88.21V50.7C282.314 47.3267 282.79 44.2833 283.744 41.57C284.77 38.7833 286.53 36.4 289.024 34.42C291.59 32.44 295.11 30.9 299.584 29.8C304.057 28.7 309.704 28.15 316.524 28.15C323.344 28.15 328.954 28.7 333.354 29.8C337.827 30.9 341.31 32.44 343.804 34.42C346.37 36.4 348.13 38.7833 349.084 41.57C350.11 44.2833 350.624 47.3267 350.624 50.7V88.21ZM307.284 84.25C307.284 85.7167 307.834 86.9633 308.934 87.99C310.034 88.9433 312.564 89.42 316.524 89.42C320.484 89.42 323.014 88.9433 324.114 87.99C325.214 86.9633 325.764 85.7167 325.764 84.25V54.66C325.764 53.2667 325.214 52.0933 324.114 51.14C323.014 50.1133 320.484 49.6 316.524 49.6C312.564 49.6 310.034 50.1133 308.934 51.14C307.834 52.0933 307.284 53.2667 307.284 54.66V84.25ZM432.057 88.21C432.057 91.5833 431.544 94.6633 430.517 97.45C429.564 100.163 427.804 102.51 425.237 104.49C422.744 106.397 419.297 107.9 414.897 109C410.497 110.1 404.887 110.65 398.067 110.65C391.247 110.65 385.637 110.1 381.237 109C376.837 107.9 373.354 106.397 370.787 104.49C368.294 102.51 366.534 100.163 365.507 97.45C364.554 94.6633 364.077 91.5833 364.077 88.21V33.76C364.077 32.3667 364.37 31.3767 364.957 30.79C365.617 30.13 366.644 29.8 368.037 29.8H385.307C386.7 29.8 387.69 30.13 388.277 30.79C388.937 31.3767 389.267 32.3667 389.267 33.76V83.92C389.267 85.3867 389.817 86.6333 390.917 87.66C392.017 88.6133 394.474 89.09 398.287 89.09C402.174 89.09 404.667 88.6133 405.767 87.66C406.867 86.6333 407.417 85.3867 407.417 83.92V33.76C407.417 32.3667 407.71 31.3767 408.297 30.79C408.957 30.13 409.984 29.8 411.377 29.8H428.097C429.49 29.8 430.48 30.13 431.067 30.79C431.727 31.3767 432.057 32.3667 432.057 33.76V88.21ZM471.557 49.6V63.68H479.807C481.714 63.68 482.997 63.2033 483.657 62.25C484.317 61.2233 484.647 59.9767 484.647 58.51V54.77C484.647 53.3033 484.317 52.0933 483.657 51.14C482.997 50.1133 481.714 49.6 479.807 49.6H471.557ZM467.597 109H450.657C449.264 109 448.237 108.707 447.577 108.12C446.991 107.46 446.697 106.433 446.697 105.04V33.76C446.697 32.3667 446.991 31.3767 447.577 30.79C448.237 30.13 449.264 29.8 450.657 29.8H487.287C495.501 29.8 501.147 31.5233 504.227 34.97C507.381 38.3433 508.957 42.7433 508.957 48.17V53.23C508.957 56.31 508.481 58.95 507.527 61.15C506.647 63.2767 505.071 64.8167 502.797 65.77C506.757 66.21 509.947 67.8233 512.367 70.61C514.861 73.3967 516.107 77.1 516.107 81.72V105.04C516.107 106.433 515.777 107.46 515.117 108.12C514.531 108.707 513.541 109 512.147 109H495.097C493.704 109 492.677 108.707 492.017 108.12C491.431 107.46 491.137 106.433 491.137 105.04V88.21C491.137 86.5967 490.807 85.4233 490.147 84.69C489.561 83.8833 488.497 83.48 486.957 83.48H471.557V105.04C471.557 106.433 471.227 107.46 470.567 108.12C469.981 108.707 468.991 109 467.597 109ZM548.905 109H532.405C531.012 109 529.985 108.707 529.325 108.12C528.739 107.46 528.445 106.433 528.445 105.04V33.76C528.445 32.3667 528.739 31.3767 529.325 30.79C529.985 30.13 531.012 29.8 532.405 29.8H543.845C545.239 29.8 546.412 30.02 547.365 30.46C548.392 30.9 549.382 31.67 550.335 32.77L571.675 57.19V33.76C571.675 32.3667 571.969 31.3767 572.555 30.79C573.215 30.13 574.242 29.8 575.635 29.8H592.135C593.529 29.8 594.519 30.13 595.105 30.79C595.765 31.3767 596.095 32.3667 596.095 33.76V105.04C596.095 106.433 595.765 107.46 595.105 108.12C594.519 108.707 593.529 109 592.135 109H575.635C574.242 109 573.215 108.707 572.555 108.12C571.969 107.46 571.675 106.433 571.675 105.04V91.51L552.865 68.74V105.04C552.865 106.433 552.535 107.46 551.875 108.12C551.289 108.707 550.299 109 548.905 109ZM666.268 109H615.228C613.834 109 612.808 108.707 612.148 108.12C611.561 107.46 611.268 106.433 611.268 105.04V33.76C611.268 32.3667 611.561 31.3767 612.148 30.79C612.808 30.13 613.834 29.8 615.228 29.8H666.268C667.661 29.8 668.651 30.13 669.238 30.79C669.898 31.3767 670.228 32.3667 670.228 33.76V46.63C670.228 48.0233 669.898 49.05 669.238 49.71C668.651 50.2967 667.661 50.59 666.268 50.59H635.908V59.06H657.358C658.751 59.06 659.741 59.39 660.328 60.05C660.988 60.6367 661.318 61.6267 661.318 63.02V74.79C661.318 76.1833 660.988 77.21 660.328 77.87C659.741 78.4567 658.751 78.75 657.358 78.75H635.908V88.21H666.268C667.661 88.21 668.651 88.54 669.238 89.2C669.898 89.7867 670.228 90.7767 670.228 92.17V105.04C670.228 106.433 669.898 107.46 669.238 108.12C668.651 108.707 667.661 109 666.268 109ZM703.59 109H687.2C685.807 109 684.78 108.707 684.12 108.12C683.534 107.46 683.24 106.433 683.24 105.04V33.76C683.24 32.3667 683.534 31.3767 684.12 30.79C684.78 30.13 685.807 29.8 687.2 29.8H704.91C706.084 29.8 707.037 30.0567 707.77 30.57C708.577 31.0833 709.31 31.9267 709.97 33.1L719.87 51.03C720.237 51.69 720.53 52.1667 720.75 52.46C721.044 52.7533 721.41 52.9 721.85 52.9H722.84C723.28 52.9 723.61 52.7533 723.83 52.46C724.124 52.1667 724.454 51.69 724.82 51.03L734.61 33.1C735.27 31.9267 735.967 31.0833 736.7 30.57C737.507 30.0567 738.497 29.8 739.67 29.8H757.49C758.884 29.8 759.874 30.13 760.46 30.79C761.12 31.3767 761.45 32.3667 761.45 33.76V105.04C761.45 106.433 761.12 107.46 760.46 108.12C759.874 108.707 758.884 109 757.49 109H740.55C739.157 109 738.13 108.707 737.47 108.12C736.884 107.46 736.59 106.433 736.59 105.04V66.32L730.1 78.31C729.44 79.5567 728.634 80.4733 727.68 81.06C726.8 81.5733 725.664 81.83 724.27 81.83H719.87C718.477 81.83 717.304 81.5733 716.35 81.06C715.47 80.4733 714.7 79.5567 714.04 78.31L707.55 66.32V105.04C707.55 106.433 707.22 107.46 706.56 108.12C705.974 108.707 704.984 109 703.59 109ZM831.59 109H780.55C779.157 109 778.13 108.707 777.47 108.12C776.883 107.46 776.59 106.433 776.59 105.04V33.76C776.59 32.3667 776.883 31.3767 777.47 30.79C778.13 30.13 779.157 29.8 780.55 29.8H831.59C832.983 29.8 833.973 30.13 834.56 30.79C835.22 31.3767 835.55 32.3667 835.55 33.76V46.63C835.55 48.0233 835.22 49.05 834.56 49.71C833.973 50.2967 832.983 50.59 831.59 50.59H801.23V59.06H822.68C824.073 59.06 825.063 59.39 825.65 60.05C826.31 60.6367 826.64 61.6267 826.64 63.02V74.79C826.64 76.1833 826.31 77.21 825.65 77.87C825.063 78.4567 824.073 78.75 822.68 78.75H801.23V88.21H831.59C832.983 88.21 833.973 88.54 834.56 89.2C835.22 89.7867 835.55 90.7767 835.55 92.17V105.04C835.55 106.433 835.22 107.46 834.56 108.12C833.973 108.707 832.983 109 831.59 109ZM869.023 109H852.523C851.129 109 850.103 108.707 849.443 108.12C848.856 107.46 848.563 106.433 848.563 105.04V33.76C848.563 32.3667 848.856 31.3767 849.443 30.79C850.103 30.13 851.129 29.8 852.523 29.8H863.963C865.356 29.8 866.529 30.02 867.483 30.46C868.509 30.9 869.499 31.67 870.453 32.77L891.793 57.19V33.76C891.793 32.3667 892.086 31.3767 892.673 30.79C893.333 30.13 894.359 29.8 895.753 29.8H912.253C913.646 29.8 914.636 30.13 915.223 30.79C915.883 31.3767 916.213 32.3667 916.213 33.76V105.04C916.213 106.433 915.883 107.46 915.223 108.12C914.636 108.707 913.646 109 912.253 109H895.753C894.359 109 893.333 108.707 892.673 108.12C892.086 107.46 891.793 106.433 891.793 105.04V91.51L872.983 68.74V105.04C872.983 106.433 872.653 107.46 871.993 108.12C871.406 108.707 870.416 109 869.023 109ZM968.785 109H950.965C949.572 109 948.545 108.707 947.885 108.12C947.298 107.46 947.005 106.433 947.005 105.04V51.03H930.835C929.442 51.03 928.415 50.7367 927.755 50.15C927.168 49.49 926.875 48.4633 926.875 47.07V33.76C926.875 32.3667 927.168 31.3767 927.755 30.79C928.415 30.13 929.442 29.8 930.835 29.8H988.915C990.308 29.8 991.298 30.13 991.885 30.79C992.545 31.3767 992.875 32.3667 992.875 33.76V47.07C992.875 48.4633 992.545 49.49 991.885 50.15C991.298 50.7367 990.308 51.03 988.915 51.03H972.745V105.04C972.745 106.433 972.415 107.46 971.755 108.12C971.168 108.707 970.178 109 968.785 109Z" fill="url(#paint1_linear_709_7165)"/>
</g>
<path d="M177.809 69L-0.000924706 69" stroke="white" stroke-width="4"/>
<path d="M1199.94 69L1022.13 69" stroke="white" stroke-width="4"/>
<defs>
<filter id="filter0_d_709_7165" x="202.363" y="23.1499" width="795.512" height="92.5" filterUnits="userSpaceOnUse" color-interpolation-filters="sRGB">
<feFlood flood-opacity="0" result="BackgroundImageFix"/>
<feColorMatrix in="SourceAlpha" type="matrix" values="0 0 0 0 0 0 0 0 0 0 0 0 0 0 0 0 0 0 127 0" result="hardAlpha"/>
<feOffset/>
<feGaussianBlur stdDeviation="2.5"/>
<feComposite in2="hardAlpha" operator="out"/>
<feColorMatrix type="matrix" values="0 0 0 0 1 0 0 0 0 1 0 0 0 0 1 0 0 0 0.5 0"/>
<feBlend mode="normal" in2="BackgroundImageFix" result="effect1_dropShadow_709_7165"/>
<feBlend mode="normal" in="SourceGraphic" in2="effect1_dropShadow_709_7165" result="shape"/>
</filter>
<filter id="filter1_d_709_7165" x="202.363" y="23.1499" width="795.512" height="92.5" filterUnits="userSpaceOnUse" color-interpolation-filters="sRGB">
<feFlood flood-opacity="0" result="BackgroundImageFix"/>
<feColorMatrix in="SourceAlpha" type="matrix" values="0 0 0 0 0 0 0 0 0 0 0 0 0 0 0 0 0 0 127 0" result="hardAlpha"/>
<feOffset/>
<feGaussianBlur stdDeviation="2.5"/>
<feComposite in2="hardAlpha" operator="out"/>
<feColorMatrix type="matrix" values="0 0 0 0 1 0 0 0 0 1 0 0 0 0 1 0 0 0 0.5 0"/>
<feBlend mode="normal" in2="BackgroundImageFix" result="effect1_dropShadow_709_7165"/>
<feBlend mode="normal" in="SourceGraphic" in2="effect1_dropShadow_709_7165" result="shape"/>
</filter>
<linearGradient id="paint0_linear_709_7165" x1="-846.897" y1="26" x2="1273.1" y2="32.3088" gradientUnits="userSpaceOnUse">
<stop offset="0.0350549" stop-color="white"/>
<stop offset="0.0542259" stop-color="white"/>
<stop offset="0.650021" stop-color="white"/>
<stop offset="0.85" stop-color="#FF00E6"/>
</linearGradient>
<linearGradient id="paint1_linear_709_7165" x1="-846.897" y1="26" x2="1273.1" y2="32.3088" gradientUnits="userSpaceOnUse">
<stop offset="0.0350549" stop-color="white"/>
<stop offset="0.0542259" stop-color="white"/>
<stop offset="0.650021" stop-color="white"/>
<stop offset="0.85" stop-color="#FF00E6"/>
</linearGradient>
</defs>
</svg>
