<svg width="50" height="50" viewBox="0 0 50 50" fill="none" xmlns="http://www.w3.org/2000/svg">
<g clip-path="url(#clip0_464_3274)">
<path fill-rule="evenodd" clip-rule="evenodd" d="M25.8219 35.9375H28.0312L29.5578 28.2453L33.1609 28.2609C35.6766 28.2609 37.7453 27.6172 39.3687 26.3297C40.9937 25.0422 41.9203 23.3281 42.1484 21.1844C42.2859 19.7141 42.0609 18.4344 41.4703 17.3484L37.2047 19.5781C37.2359 19.75 37.2531 19.9266 37.2594 20.1016C37.2938 21.4641 36.9734 22.5484 36.2984 23.3563C35.6234 24.1625 34.6734 24.575 33.4516 24.5953L30.2781 24.5641L30.5813 23.0406L25.0891 25.9109L24.0891 30.9812L22.7422 27.1375L18.6094 29.2984L20.3 35.9375H25.8219ZM23.7672 18.7656H26.5016L25.6703 22.9734L31.1641 20.1016L31.6328 17.7422L35.2188 17.7734C35.3281 17.7797 35.4375 17.7938 35.5437 17.8141L39.9188 15.5266C38.7531 14.6109 37.2609 14.1281 35.4406 14.0781L27.4312 14.0625H23.9703L21.0328 18.7656H23.7672ZM23.7672 18.7656H21.0328L19.3906 21.5453L17.4688 14.0625H12.0312L15.7375 24.7297L11.8828 30.1828L22.2875 24.7422L26.5016 18.7641L23.7672 18.7656ZM25 50C11.1922 50 0 38.8078 0 25C0 11.1922 11.1922 0 25 0C38.8078 0 50 11.1922 50 25C50 38.8078 38.8078 50 25 50ZM9.04062 34.3L9.00937 34.2422L7.8125 35.9375H13.6953L17.3641 29.9484L9.04062 34.3Z" fill="#F989FF"/>
</g>
<defs>
<clipPath id="clip0_464_3274">
<rect width="50" height="50" fill="white"/>
</clipPath>
</defs>
</svg>
