<svg width="223" height="223" viewBox="0 0 223 223" fill="none" xmlns="http://www.w3.org/2000/svg">
<g opacity="0.1">
<path fill-rule="evenodd" clip-rule="evenodd" d="M108.659 36.8514C110.52 35.7938 112.804 35.8082 114.652 36.8891L174.875 72.1151C176.726 73.198 177.859 75.187 177.845 77.3319L177.406 147.009C177.393 149.154 176.235 151.128 174.37 152.188L113.708 186.654C111.847 187.712 109.563 187.697 107.715 186.616L47.4918 151.39C45.6403 150.307 44.5078 148.318 44.5213 146.174L44.9606 76.4966C44.9741 74.3517 46.1316 72.3771 47.9966 71.3175L108.659 36.8514Z" fill="black" style="mix-blend-mode:multiply"/>
</g>
<g filter="url(#filter0_d_231_1027)">
<path fill-rule="evenodd" clip-rule="evenodd" d="M62.2529 102.272L111.246 102.58L110.639 198.807C110.635 199.551 109.85 200.029 109.187 199.693L86.2098 188.04L63.0873 199.403C62.4204 199.731 61.6416 199.243 61.6463 198.499L62.2529 102.272Z" fill="#585858"/>
</g>
<g filter="url(#filter1_d_231_1027)">
<path fill-rule="evenodd" clip-rule="evenodd" d="M74.4434 111.522L123.436 111.83L122.83 208.057C122.825 208.801 122.04 209.279 121.378 208.943L98.4002 197.29L75.2777 208.653C74.6108 208.981 73.832 208.493 73.8367 207.749L74.4434 111.522Z" fill="#242424"/>
</g>
<g filter="url(#filter2_d_231_1027)">
<path fill-rule="evenodd" clip-rule="evenodd" d="M111.246 102.58L160.239 102.888L159.633 199.116C159.628 199.859 158.843 200.337 158.18 200.001L135.203 188.348L112.08 199.711C111.414 200.039 110.635 199.551 110.639 198.808L111.246 102.58Z" fill="#585858"/>
</g>
<g filter="url(#filter3_d_231_1027)">
<path fill-rule="evenodd" clip-rule="evenodd" d="M98.9395 111.676L147.933 111.984L147.326 208.211C147.321 208.954 146.536 209.433 145.874 209.097L122.896 197.444L99.7738 208.807C99.1069 209.135 98.3281 208.646 98.3328 207.903L98.9395 111.676Z" fill="#242424"/>
</g>
<g filter="url(#filter4_d_231_1027)">
<path fill-rule="evenodd" clip-rule="evenodd" d="M86.6533 117.714L135.646 118.022L135.04 214.25C135.035 214.993 134.25 215.472 133.587 215.135L110.61 203.482L87.4877 214.846C86.8208 215.173 86.042 214.685 86.0467 213.942L86.6533 117.714Z" fill="white"/>
</g>
<mask id="mask0_231_1027" style="mask-type:luminance" maskUnits="userSpaceOnUse" x="86" y="117" width="50" height="99">
<path fill-rule="evenodd" clip-rule="evenodd" d="M86.6533 117.714L135.646 118.022L135.04 214.25C135.035 214.993 134.25 215.472 133.587 215.135L110.61 203.482L87.4877 214.846C86.8208 215.173 86.042 214.685 86.0467 213.942L86.6533 117.714Z" fill="white"/>
</mask>
<g mask="url(#mask0_231_1027)">
<rect width="24.497" height="97.8464" transform="matrix(0.99998 0.00628584 -0.00630407 0.99998 98.9014 117.792)" fill="url(#paint0_linear_231_1027)"/>
</g>
<path style="mix-blend-mode:multiply" opacity="0.1" fill-rule="evenodd" clip-rule="evenodd" d="M109.559 53.2716C110.8 52.5666 112.322 52.5761 113.554 53.2967L170.339 86.5118C171.573 87.2338 172.328 88.5598 172.319 89.9897L171.905 155.693C171.896 157.123 171.125 158.44 169.881 159.146L112.682 191.645C111.441 192.35 109.918 192.34 108.686 191.62L51.9013 158.404C50.667 157.682 49.912 156.357 49.921 154.927L50.3353 89.2229C50.3443 87.793 51.1159 86.4766 52.3592 85.7702L109.559 53.2716Z" fill="black"/>
<path fill-rule="evenodd" clip-rule="evenodd" d="M76.8839 121.088L61.6121 114.877L61.6313 111.819L44.2945 104.478C43.8626 104.295 43.3972 104.656 43.4673 105.12L46.0264 122.061C46.0772 122.397 46.2954 122.685 46.6056 122.824L76.7875 136.377L76.8839 121.088Z" fill="url(#paint1_linear_231_1027)" stroke="url(#paint2_linear_231_1027)" stroke-linecap="round" stroke-linejoin="round"/>
<path fill-rule="evenodd" clip-rule="evenodd" d="M70.8555 105.762L55.5837 99.5502L55.603 96.4926L38.2662 89.1511C37.8342 88.9682 37.3689 89.3295 37.439 89.7933L39.9981 106.734C40.0489 107.07 40.2671 107.358 40.5772 107.497L70.7592 121.05L70.8555 105.762Z" fill="url(#paint3_linear_231_1027)" stroke="url(#paint4_linear_231_1027)" stroke-linecap="round" stroke-linejoin="round"/>
<path fill-rule="evenodd" clip-rule="evenodd" d="M64.8282 90.4351L49.5564 84.2236L49.5757 81.1659L32.2389 73.8245C31.8069 73.6416 31.3415 74.0028 31.4116 74.4666L33.9708 91.4076C34.0216 91.7438 34.2397 92.0312 34.5499 92.1705L64.7318 105.723L64.8282 90.4351Z" fill="url(#paint5_linear_231_1027)" stroke="url(#paint6_linear_231_1027)" stroke-linecap="round" stroke-linejoin="round"/>
<path fill-rule="evenodd" clip-rule="evenodd" d="M58.8004 75.1083L43.5286 68.8968L43.5479 65.8392L26.211 58.4977C25.7791 58.3148 25.3137 58.676 25.3838 59.1399L27.943 76.0808C27.9938 76.417 28.2119 76.7044 28.5221 76.8437L58.704 90.3965L58.8004 75.1083Z" fill="url(#paint7_linear_231_1027)" stroke="url(#paint8_linear_231_1027)" stroke-linecap="round" stroke-linejoin="round"/>
<mask id="mask1_231_1027" style="mask-type:luminance" maskUnits="userSpaceOnUse" x="25" y="58" width="53" height="78">
<path fill-rule="evenodd" clip-rule="evenodd" d="M32.1705 79.4875C32.0689 78.8151 31.6326 78.2403 31.0122 77.9618L29.5478 77.3042C28.5985 76.8779 27.9311 75.9993 27.7758 74.9716L25.714 61.3229C25.6634 60.9877 25.7067 60.6451 25.8393 60.333C26.2354 59.4002 27.3139 58.9646 28.2481 59.3602L42.3199 65.3191C43.0637 65.6341 43.545 66.3656 43.5399 67.1733L43.5376 67.5422C43.5324 68.3603 44.0261 69.0991 44.784 69.4074L57.5459 74.598C58.3038 74.9063 58.7975 75.6451 58.7923 76.4632L58.7284 86.5958C58.7233 87.4139 59.217 88.1527 59.9748 88.461L63.5737 89.9247C64.3315 90.233 64.8252 90.9718 64.8201 91.7899L64.7562 101.922C64.751 102.741 65.2447 103.479 66.0026 103.788L69.6014 105.251C70.3593 105.56 70.853 106.298 70.8478 107.117L70.7839 117.249C70.7788 118.067 71.2725 118.806 72.0304 119.114L75.6292 120.578C76.387 120.886 76.8807 121.625 76.8756 122.443L76.8071 133.308C76.798 134.753 75.3062 135.711 73.9878 135.119L47.6311 123.284C46.6818 122.858 46.0144 121.979 45.8591 120.952L44.226 110.141C44.1244 109.468 43.6881 108.894 43.0677 108.615L41.6034 107.958C40.6541 107.531 39.9866 106.653 39.8314 105.625L38.1982 94.8142C38.0967 94.1418 37.6604 93.567 37.04 93.2885L35.5756 92.6309C34.6263 92.2046 33.9589 91.326 33.8036 90.2983L32.1705 79.4875Z" fill="white" stroke="white"/>
</mask>
<g mask="url(#mask1_231_1027)">
<g opacity="0.1">
<path fill-rule="evenodd" clip-rule="evenodd" d="M108.659 36.8509C110.52 35.7933 112.804 35.8077 114.652 36.8886L174.875 72.1146C176.726 73.1975 177.859 75.1865 177.845 77.3314L177.406 147.008C177.393 149.153 176.235 151.128 174.37 152.187L113.708 186.653C111.847 187.711 109.563 187.697 107.715 186.616L47.4918 151.39C45.6403 150.307 44.5078 148.318 44.5213 146.173L44.9606 76.4961C44.9741 74.3512 46.1316 72.3766 47.9966 71.317L108.659 36.8509Z" fill="black" style="mix-blend-mode:multiply"/>
</g>
</g>
<path fill-rule="evenodd" clip-rule="evenodd" d="M145.373 121.519L160.722 115.5L160.741 112.442L178.169 105.319C178.604 105.142 179.064 105.509 178.989 105.972L176.216 122.879C176.161 123.215 175.939 123.499 175.627 123.635L145.277 136.807L145.373 121.519Z" fill="url(#paint9_linear_231_1027)" stroke="url(#paint10_linear_231_1027)" stroke-linecap="round" stroke-linejoin="round"/>
<path fill-rule="evenodd" clip-rule="evenodd" d="M151.593 106.269L166.942 100.25L166.961 97.1926L184.389 90.0696C184.823 89.8922 185.284 90.2592 185.208 90.7221L182.436 107.63C182.381 107.965 182.159 108.25 181.847 108.385L151.497 121.557L151.593 106.269Z" fill="url(#paint11_linear_231_1027)" stroke="url(#paint12_linear_231_1027)" stroke-linecap="round" stroke-linejoin="round"/>
<path fill-rule="evenodd" clip-rule="evenodd" d="M157.814 91.0192L173.163 85.0002L173.182 81.9426L190.61 74.8196C191.044 74.6422 191.505 75.0092 191.429 75.4721L188.656 92.3796C188.601 92.7151 188.38 92.9997 188.068 93.1351L157.717 106.307L157.814 91.0192Z" fill="url(#paint13_linear_231_1027)" stroke="url(#paint14_linear_231_1027)" stroke-linecap="round" stroke-linejoin="round"/>
<path fill-rule="evenodd" clip-rule="evenodd" d="M164.034 75.7697L179.383 69.7507L179.403 66.6931L196.831 59.5701C197.265 59.3927 197.726 59.7597 197.65 60.2226L194.877 77.1301C194.822 77.4656 194.6 77.7502 194.288 77.8856L163.938 91.0579L164.034 75.7697Z" fill="url(#paint15_linear_231_1027)" stroke="url(#paint16_linear_231_1027)" stroke-linecap="round" stroke-linejoin="round"/>
<mask id="mask2_231_1027" style="mask-type:luminance" maskUnits="userSpaceOnUse" x="144" y="59" width="54" height="78">
<path fill-rule="evenodd" clip-rule="evenodd" d="M190.607 80.4832C190.718 79.8121 191.161 79.2429 191.785 78.9722L193.257 78.3331C194.212 77.9188 194.891 77.0486 195.059 76.0229L197.292 62.4012C197.347 62.0667 197.308 61.7235 197.18 61.4098C196.795 60.4721 195.722 60.0231 194.783 60.4069L180.638 66.1883C179.89 66.4939 179.399 67.2193 179.394 68.0271L179.392 68.3959C179.387 69.2141 178.884 69.9466 178.122 70.2453L165.296 75.2751C164.534 75.5738 164.031 76.3063 164.026 77.1245L163.962 87.2571C163.957 88.0752 163.454 88.8077 162.692 89.1064L159.075 90.5248C158.314 90.8235 157.811 91.5561 157.805 92.3742L157.742 102.507C157.736 103.325 157.233 104.057 156.472 104.356L152.855 105.775C152.093 106.073 151.59 106.806 151.585 107.624L151.521 117.756C151.516 118.575 151.013 119.307 150.251 119.606L146.634 121.024C145.872 121.323 145.37 122.055 145.364 122.874L145.296 133.738C145.287 135.183 146.766 136.16 148.092 135.585L174.596 124.082C175.55 123.668 176.229 122.798 176.397 121.772L178.166 110.983C178.276 110.312 178.72 109.742 179.344 109.472L180.816 108.832C181.771 108.418 182.449 107.548 182.618 106.522L184.387 95.7329C184.497 95.0618 184.941 94.4926 185.564 94.2219L187.037 93.5828C187.992 93.1685 188.67 92.2983 188.838 91.2726L190.607 80.4832Z" fill="white" stroke="white"/>
</mask>
<g mask="url(#mask2_231_1027)">
<g opacity="0.1">
<path fill-rule="evenodd" clip-rule="evenodd" d="M114.653 36.8888C112.805 35.8078 110.521 35.7935 108.66 36.8511L47.9975 71.3172C46.1326 72.3768 44.9751 74.3513 44.9616 76.4962L44.5223 146.173C44.5088 148.318 45.6413 150.307 47.4927 151.39L107.716 186.616C109.564 187.697 111.847 187.711 113.709 186.654L174.371 152.188C176.236 151.128 177.394 149.153 177.407 147.009L177.846 77.3315C177.86 75.1866 176.727 73.1977 174.876 72.1147L114.653 36.8888Z" fill="black" style="mix-blend-mode:multiply"/>
</g>
</g>
<path fill-rule="evenodd" clip-rule="evenodd" d="M55.9552 129.752L44.1442 135.556C43.8466 135.703 43.6408 135.987 43.5949 136.315L40.6296 157.503C40.5608 157.995 41.0851 158.353 41.5179 158.109L61.9733 146.607L55.9552 129.752Z" fill="url(#paint17_linear_231_1027)" stroke="url(#paint18_linear_231_1027)" stroke-linecap="round" stroke-linejoin="round"/>
<path fill-rule="evenodd" clip-rule="evenodd" d="M166.19 130.445L177.927 136.397C178.222 136.547 178.424 136.834 178.466 137.163L181.164 158.387C181.227 158.879 180.698 159.23 180.268 158.981L159.959 147.223L166.19 130.445Z" fill="url(#paint19_linear_231_1027)" stroke="url(#paint20_linear_231_1027)" stroke-linecap="round" stroke-linejoin="round"/>
<path d="M143.848 54.8504L79.2275 54.4442C78.7128 54.441 78.5382 53.7559 78.9887 53.5067L111.461 35.5442C111.614 35.4597 111.8 35.461 111.951 35.5476L144.099 53.9163C144.546 54.1715 144.362 54.8536 143.848 54.8504Z" fill="url(#paint21_linear_231_1027)" stroke="url(#paint22_linear_231_1027)" stroke-linecap="round" stroke-linejoin="round"/>
<g filter="url(#filter5_i_231_1027)">
<path fill-rule="evenodd" clip-rule="evenodd" d="M166.028 156.186C166.026 156.543 165.833 156.873 165.522 157.049L113.714 186.484C111.853 187.542 109.569 187.528 107.721 186.447L56.2886 156.363C55.98 156.182 55.7913 155.851 55.7935 155.493L55.8988 138.802C55.9036 138.031 56.7414 137.555 57.4056 137.946L108.028 167.713C109.758 168.731 111.901 168.744 113.644 167.748L164.637 138.62C165.306 138.238 166.138 138.724 166.133 139.495L166.028 156.186Z" fill="url(#paint23_linear_231_1027)"/>
</g>
<path d="M165.275 156.614L113.467 186.05C111.761 187.019 109.667 187.006 107.973 186.015L56.5411 155.931C56.3868 155.841 56.2924 155.675 56.2935 155.496L56.3988 138.805C56.4012 138.42 56.8201 138.182 57.1522 138.377L107.774 168.144C109.659 169.252 111.993 169.267 113.892 168.183L164.885 139.054C165.22 138.863 165.636 139.106 165.633 139.492L165.528 156.183C165.527 156.362 165.43 156.526 165.275 156.614Z" stroke="url(#paint24_linear_231_1027)" stroke-linecap="round" stroke-linejoin="round"/>
<mask id="path-27-inside-1_231_1027" fill="white">
<path fill-rule="evenodd" clip-rule="evenodd" d="M98.9273 59.915C99.1472 59.7278 99.277 59.4528 99.2789 59.16L99.3802 43.0894C99.3802 43.087 99.3802 43.0847 99.3802 43.0824L99.4475 32.4174C99.4537 31.4284 98.1738 31.0316 97.6194 31.8506L85.9775 49.0489L63.0022 62.2361C62.6935 62.4133 62.5022 62.7412 62.5 63.0971L62.3804 82.059C62.3754 82.8573 63.2619 83.3394 63.9292 82.9012L66.5484 81.1817L98.8277 59.9897C98.8627 59.9667 98.8959 59.9417 98.9273 59.915Z"/>
</mask>
<path fill-rule="evenodd" clip-rule="evenodd" d="M98.9273 59.915C99.1472 59.7278 99.277 59.4528 99.2789 59.16L99.3802 43.0894C99.3802 43.087 99.3802 43.0847 99.3802 43.0824L99.4475 32.4174C99.4537 31.4284 98.1738 31.0316 97.6194 31.8506L85.9775 49.0489L63.0022 62.2361C62.6935 62.4133 62.5022 62.7412 62.5 63.0971L62.3804 82.059C62.3754 82.8573 63.2619 83.3394 63.9292 82.9012L66.5484 81.1817L98.8277 59.9897C98.8627 59.9667 98.8959 59.9417 98.9273 59.915Z" fill="url(#paint25_linear_231_1027)"/>
<path d="M99.2789 59.16L98.2789 59.1537L98.2789 59.1537L99.2789 59.16ZM98.9273 59.915L98.279 59.1537L98.279 59.1537L98.9273 59.915ZM99.3802 43.0894L100.38 43.0956L100.38 43.0956L99.3802 43.0894ZM99.3802 43.0824L98.3802 43.0761L98.3802 43.0826L99.3802 43.0824ZM97.6194 31.8506L96.7913 31.29L96.7913 31.29L97.6194 31.8506ZM85.9775 49.0489L86.4753 49.9162C86.6073 49.8404 86.7203 49.7355 86.8056 49.6095L85.9775 49.0489ZM63.0022 62.2361L62.5044 61.3688L62.5044 61.3688L63.0022 62.2361ZM62.5 63.0971L61.5 63.0908L62.5 63.0971ZM62.3804 82.059L63.3804 82.0653L62.3804 82.059ZM63.9292 82.9012L64.478 83.7372L64.478 83.7372L63.9292 82.9012ZM66.5484 81.1817L65.9996 80.3457L65.9996 80.3457L66.5484 81.1817ZM98.8277 59.9897L98.2789 59.1537L98.2789 59.1537L98.8277 59.9897ZM98.2789 59.1537L98.279 59.1537L99.5756 60.6763C100.015 60.3019 100.275 59.752 100.279 59.1663L98.2789 59.1537ZM98.3802 43.0831L98.2789 59.1537L100.279 59.1663L100.38 43.0956L98.3802 43.0831ZM98.3802 43.0826C98.3802 43.0828 98.3802 43.0829 98.3802 43.0831L100.38 43.0956C100.38 43.0911 100.38 43.0866 100.38 43.0821L98.3802 43.0826ZM98.4475 32.4111L98.3803 43.0761L100.38 43.0887L100.447 32.4237L98.4475 32.4111ZM98.4475 32.4111L98.4475 32.4111L100.447 32.4237C100.46 30.4457 97.9001 29.652 96.7913 31.29L98.4475 32.4111ZM86.8056 49.6095L98.4475 32.4111L96.7913 31.29L85.1494 48.4883L86.8056 49.6095ZM63.5 63.1034L86.4753 49.9162L85.4797 48.1816L62.5044 61.3688L63.5 63.1034ZM63.5 63.1034L63.5 63.1034L62.5044 61.3688C61.887 61.7232 61.5045 62.379 61.5 63.0908L63.5 63.1034ZM63.3804 82.0653L63.5 63.1034L61.5 63.0908L61.3805 82.0527L63.3804 82.0653ZM63.3804 82.0653L63.3804 82.0653L61.3805 82.0527C61.3704 83.6494 63.1433 84.6134 64.478 83.7372L63.3804 82.0653ZM65.9996 80.3457L63.3804 82.0653L64.478 83.7372L67.0972 82.0176L65.9996 80.3457ZM98.2789 59.1537L65.9996 80.3457L67.0972 82.0176L99.3765 60.8256L98.2789 59.1537ZM98.279 59.1537L98.2789 59.1537L99.3765 60.8256C99.4463 60.7798 99.5128 60.7299 99.5757 60.6763L98.279 59.1537Z" fill="url(#paint26_linear_231_1027)" mask="url(#path-27-inside-1_231_1027)"/>
<mask id="path-29-inside-2_231_1027" fill="white">
<path fill-rule="evenodd" clip-rule="evenodd" d="M123.869 43.2353C123.869 43.2379 123.869 43.2405 123.869 43.2431L123.767 59.3137C123.765 59.6483 123.931 59.9618 124.208 60.149L124.208 60.149L156.218 81.7451L158.815 83.4975C159.477 83.944 160.369 83.4731 160.374 82.6748L160.494 63.7129C160.496 63.357 160.309 63.0267 160.003 62.8456L137.195 49.3707L125.771 32.0273C125.227 31.2014 123.942 31.5822 123.936 32.5712L123.869 43.2353Z"/>
</mask>
<path fill-rule="evenodd" clip-rule="evenodd" d="M123.869 43.2353C123.869 43.2379 123.869 43.2405 123.869 43.2431L123.767 59.3137C123.765 59.6483 123.931 59.9618 124.208 60.149L124.208 60.149L156.218 81.7451L158.815 83.4975C159.477 83.944 160.369 83.4731 160.374 82.6748L160.494 63.7129C160.496 63.357 160.309 63.0267 160.003 62.8456L137.195 49.3707L125.771 32.0273C125.227 31.2014 123.942 31.5822 123.936 32.5712L123.869 43.2353Z" fill="url(#paint27_linear_231_1027)"/>
<path d="M123.869 43.2353L124.869 43.2489L124.869 43.2416L123.869 43.2353ZM123.869 43.2431L124.869 43.2494L123.869 43.2431ZM123.767 59.3137L122.767 59.3074L123.767 59.3137ZM124.208 60.149L123.649 60.978C123.722 61.0271 123.801 61.0664 123.884 61.0948L124.208 60.149ZM124.208 60.149L124.767 59.32C124.695 59.2709 124.616 59.2316 124.533 59.2031L124.208 60.149ZM156.218 81.7451L156.777 80.9161L156.777 80.9161L156.218 81.7451ZM158.815 83.4975L158.256 84.3264L158.256 84.3264L158.815 83.4975ZM160.374 82.6748L159.374 82.6685L160.374 82.6748ZM160.494 63.7129L161.494 63.7192L160.494 63.7129ZM160.003 62.8456L160.511 61.9847L160.511 61.9847L160.003 62.8456ZM137.195 49.3707L136.36 49.9208C136.444 50.0479 136.556 50.1542 136.687 50.2316L137.195 49.3707ZM125.771 32.0273L126.606 31.4773L126.606 31.4772L125.771 32.0273ZM123.936 32.5712L122.936 32.5649L123.936 32.5712ZM122.869 43.2217C122.869 43.2267 122.869 43.2318 122.869 43.2368L124.869 43.2494C124.869 43.2492 124.869 43.2491 124.869 43.2489L122.869 43.2217ZM122.869 43.2368L122.767 59.3074L124.767 59.32L124.869 43.2494L122.869 43.2368ZM122.767 59.3074C122.763 59.9767 123.094 60.6037 123.649 60.978L124.767 59.32L124.767 59.32L122.767 59.3074ZM123.884 61.0948L123.884 61.0949L124.533 59.2031L124.533 59.2031L123.884 61.0948ZM123.649 60.978L155.658 82.5741L156.777 80.9161L124.767 59.32L123.649 60.978ZM155.658 82.5741L158.256 84.3264L159.374 82.6685L156.777 80.9161L155.658 82.5741ZM158.256 84.3264C159.579 85.2194 161.364 84.2777 161.374 82.6811L159.374 82.6685L159.374 82.6685L158.256 84.3264ZM161.374 82.6811L161.494 63.7192L159.494 63.7066L159.374 82.6685L161.374 82.6811ZM161.494 63.7192C161.498 63.0073 161.124 62.3468 160.511 61.9847L159.494 63.7066L159.494 63.7066L161.494 63.7192ZM160.511 61.9847L137.704 48.5097L136.687 50.2316L159.494 63.7066L160.511 61.9847ZM138.03 48.8206L126.606 31.4773L124.936 32.5774L136.36 49.9208L138.03 48.8206ZM126.606 31.4772C125.518 29.8254 122.949 30.5869 122.936 32.5649L124.936 32.5774L124.936 32.5774L126.606 31.4772ZM122.936 32.5649L122.869 43.229L124.869 43.2416L124.936 32.5774L122.936 32.5649Z" fill="url(#paint28_linear_231_1027)" mask="url(#path-29-inside-2_231_1027)"/>
<path fill-rule="evenodd" clip-rule="evenodd" d="M109.627 42.5663C110.868 41.8612 112.39 41.8708 113.622 42.5914L170.407 75.8065C171.642 76.5285 172.397 77.8544 172.388 79.2844L171.973 144.988C171.964 146.418 171.193 147.734 169.949 148.441L112.75 180.939C111.509 181.644 109.986 181.635 108.754 180.914L51.9694 147.699C50.7351 146.977 49.9801 145.651 49.9892 144.221L50.4034 78.5176C50.4124 77.0876 51.184 75.7713 52.4273 75.0649L109.627 42.5663Z" fill="url(#paint29_linear_231_1027)" stroke="#FFF04D" stroke-opacity="0.4"/>
<mask id="mask3_231_1027" style="mask-type:luminance" maskUnits="userSpaceOnUse" x="49" y="42" width="124" height="140">
<path fill-rule="evenodd" clip-rule="evenodd" d="M109.627 42.5663C110.868 41.8612 112.39 41.8708 113.622 42.5914L170.407 75.8065C171.642 76.5285 172.397 77.8544 172.388 79.2844L171.973 144.988C171.964 146.418 171.193 147.734 169.949 148.441L112.75 180.939C111.509 181.644 109.986 181.635 108.754 180.914L51.9694 147.699C50.7351 146.977 49.9801 145.651 49.9892 144.221L50.4034 78.5176C50.4124 77.0876 51.184 75.7713 52.4273 75.0649L109.627 42.5663Z" fill="white"/>
</mask>
<g mask="url(#mask3_231_1027)">
<g style="mix-blend-mode:multiply" opacity="0.4">
<path d="M111.188 111.753L130.023 38.4852L93.2784 38.2542L111.188 111.753L72.6234 46.6457L46.4774 72.4273L111.188 111.753L37.8142 92.9452L37.5829 129.637L111.188 111.753L45.9867 150.262L71.8056 176.37L111.188 111.753L92.3531 185.021L129.098 185.252L111.188 111.753L149.753 176.86L175.899 151.079L111.188 111.753L184.562 130.561L184.794 93.8691L111.188 111.753L176.39 73.244L150.571 47.1357L111.188 111.753Z" fill="#FFD640"/>
</g>
<g filter="url(#filter6_di_231_1027)">
<path fill-rule="evenodd" clip-rule="evenodd" d="M159.383 78.9966L116.198 53.7076C113.335 52.0309 109.795 52.0087 106.911 53.6492L63.4112 78.3934C60.5272 80.0339 58.7377 83.088 58.7168 86.4052L58.603 104.453L54.2888 110.835C54.0627 111.169 54.0599 111.607 54.2818 111.944L58.5152 118.38L58.4013 136.438C58.3804 139.756 60.1313 142.832 62.9944 144.509L106.179 169.798C109.042 171.474 112.582 171.497 115.466 169.856L158.966 145.112C161.85 143.471 163.639 140.417 163.66 137.1L163.774 119.042L168.088 112.66C168.314 112.325 168.317 111.887 168.095 111.55L163.862 105.114L163.976 87.0669C163.997 83.7497 162.246 80.6733 159.383 78.9966ZM61.611 118.4L61.4972 136.458C61.4832 138.669 62.6505 140.72 64.5592 141.838L107.743 167.127C109.652 168.245 112.012 168.26 113.935 167.166L157.435 142.422C159.357 141.328 160.55 139.292 160.564 137.081L160.678 119.022L156.445 112.586C156.223 112.249 156.226 111.811 156.452 111.477L160.766 105.095L160.88 87.0473C160.894 84.8358 159.726 82.7849 157.818 81.6672L114.634 56.3781C112.725 55.2603 110.365 55.2455 108.442 56.3392L64.9422 81.0834C63.0196 82.177 61.8265 84.2131 61.8126 86.4246L61.6988 104.472L65.9323 110.908C66.1542 111.245 66.1514 111.683 65.9253 112.017L61.611 118.4Z" fill="#676763"/>
</g>
<mask id="mask4_231_1027" style="mask-type:luminance" maskUnits="userSpaceOnUse" x="54" y="52" width="115" height="120">
<path fill-rule="evenodd" clip-rule="evenodd" d="M159.383 78.9966L116.198 53.7076C113.335 52.0309 109.795 52.0087 106.911 53.6492L63.4112 78.3934C60.5272 80.0339 58.7377 83.088 58.7168 86.4052L58.603 104.453L54.2888 110.835C54.0627 111.169 54.0599 111.607 54.2818 111.944L58.5152 118.38L58.4014 136.438C58.3804 139.756 60.1313 142.832 62.9944 144.509L106.179 169.798C109.042 171.474 112.582 171.497 115.466 169.856L158.966 145.112C161.85 143.471 163.639 140.417 163.66 137.1L163.774 119.042L168.088 112.66C168.314 112.325 168.317 111.887 168.095 111.55L163.862 105.114L163.976 87.0669C163.997 83.7497 162.246 80.6733 159.383 78.9966ZM61.611 118.4L61.4972 136.458C61.4832 138.669 62.6505 140.72 64.5592 141.838L107.743 167.127C109.652 168.245 112.012 168.26 113.935 167.166L157.435 142.422C159.357 141.328 160.55 139.292 160.564 137.081L160.678 119.022L156.445 112.586C156.223 112.249 156.226 111.811 156.452 111.477L160.766 105.095L160.88 87.0473C160.894 84.8358 159.726 82.7849 157.818 81.6672L114.634 56.3781C112.725 55.2603 110.365 55.2455 108.442 56.3392L64.9423 81.0834C63.0196 82.177 61.8265 84.2131 61.8126 86.4246L61.6988 104.472L65.9323 110.908C66.1542 111.245 66.1514 111.683 65.9253 112.017L61.611 118.4Z" fill="white"/>
</mask>
<g mask="url(#mask4_231_1027)">
<g style="mix-blend-mode:multiply" opacity="0.4">
<path fill-rule="evenodd" clip-rule="evenodd" d="M111.188 111.753L37.8142 92.9447L37.5829 129.636L111.188 111.753ZM111.188 111.753L130.023 38.4847L93.2784 38.2537L111.188 111.753ZM111.188 111.753L184.562 130.56L184.794 93.8686L111.188 111.753ZM111.188 111.753L150.571 47.1352L176.39 73.2434L111.188 111.753ZM111.188 111.753L175.899 151.078L149.753 176.86L111.188 111.753ZM111.188 111.753L71.8055 176.37L45.9865 150.262L111.188 111.753ZM111.188 111.753L129.098 185.251L92.3531 185.02L111.188 111.753Z" fill="#5A5951"/>
<path d="M72.6233 46.6452L46.4772 72.4268L111.188 111.753L72.6233 46.6452Z" fill="#5A5951"/>
</g>
</g>
<path d="M116.96 46.3153C113.656 44.3828 109.571 44.3571 106.243 46.248L57.3218 74.0431C53.9939 75.9339 51.9289 79.454 51.9048 83.2774L51.5505 139.48C51.5264 143.304 53.5468 146.85 56.8507 148.782L105.417 177.19C108.721 179.123 112.807 179.148 116.135 177.257L165.056 149.462C168.384 147.571 170.449 144.051 170.473 140.228L170.827 84.0249C170.851 80.2016 168.831 76.6558 165.527 74.7233L116.96 46.3153Z" stroke="#FAB90A"/>
<path opacity="0.4" d="M116.134 177.257C121.888 173.988 125.965 171.672 128.365 170.309" stroke="white" stroke-linecap="round"/>
<path d="M170.473 140.228L170.827 84.0249C170.851 80.2016 168.831 76.6558 165.527 74.7233L116.96 46.3153C113.656 44.3828 109.571 44.3571 106.243 46.248L57.3218 74.0431C53.9939 75.9339 51.9289 79.454 51.9048 83.2774L51.5505 139.48" stroke="#FAC81C" stroke-linecap="round"/>
<path opacity="0.6" d="M170.827 84.0249C170.851 80.2016 168.831 76.6558 165.527 74.7233L116.96 46.3153C113.656 44.3828 109.571 44.3571 106.243 46.248L57.3218 74.0431C53.9939 75.9339 51.9289 79.454 51.9048 83.2774" stroke="#FFE56A" stroke-linecap="round"/>
<path opacity="0.6" d="M116.96 46.3155C113.656 44.3829 109.571 44.3573 106.243 46.2481C106.243 46.2481 89.9358 55.5131 81.7823 60.1457" stroke="white" stroke-linecap="round"/>
<path d="M106.243 46.248C106.243 46.248 97.6123 51.1514 94.0124 53.1968" stroke="white" stroke-linecap="round"/>
</g>
<g filter="url(#filter7_d_231_1027)">
<path fill-rule="evenodd" clip-rule="evenodd" d="M110.494 63.4C111.114 63.0475 111.875 63.0523 112.491 63.4126L152.774 86.9748C153.391 87.3358 153.768 87.9988 153.764 88.7138L153.47 135.325C153.465 136.04 153.08 136.698 152.458 137.051L111.882 160.105C111.261 160.458 110.5 160.453 109.884 160.093L69.6016 136.531C68.9844 136.17 68.6069 135.507 68.6114 134.792L68.9053 88.1804C68.9098 87.4654 69.2956 86.8072 69.9173 86.454L110.494 63.4Z" fill="url(#paint30_linear_231_1027)"/>
<path d="M153.026 86.5432L112.744 62.981C111.974 62.5306 111.022 62.5246 110.247 62.9653L69.6703 86.0193C68.8932 86.4608 68.4109 87.2835 68.4053 88.1772L68.1114 134.788C68.1058 135.682 68.5777 136.511 69.3491 136.962L109.632 160.524C110.401 160.975 111.353 160.981 112.129 160.54L152.705 137.486C153.482 137.045 153.964 136.222 153.97 135.328L154.264 88.7169C154.269 87.8232 153.798 86.9945 153.026 86.5432Z" stroke="#F5900D" stroke-opacity="0.1" style="mix-blend-mode:multiply"/>
</g>
<mask id="mask5_231_1027" style="mask-type:luminance" maskUnits="userSpaceOnUse" x="68" y="63" width="86" height="98">
<path fill-rule="evenodd" clip-rule="evenodd" d="M110.494 63.4C111.114 63.0475 111.875 63.0523 112.491 63.4126L152.774 86.9748C153.391 87.3358 153.768 87.9988 153.764 88.7138L153.47 135.325C153.465 136.04 153.08 136.698 152.458 137.051L111.882 160.105C111.261 160.458 110.5 160.453 109.884 160.093L69.6016 136.531C68.9844 136.17 68.6069 135.507 68.6114 134.792L68.9053 88.1804C68.9098 87.4654 69.2956 86.8072 69.9173 86.454L110.494 63.4Z" fill="white"/>
</mask>
<g mask="url(#mask5_231_1027)">
<g style="mix-blend-mode:multiply" opacity="0.3">
<path fill-rule="evenodd" clip-rule="evenodd" d="M111.188 111.753L62.1174 123.675L62.2716 99.2141L111.188 111.753ZM111.188 111.753L123.744 62.9074L99.2478 62.7534L111.188 111.753ZM111.188 111.753L160.258 99.8301L160.104 124.291L111.188 111.753ZM111.188 111.753L137.443 68.6744L154.655 86.0799L111.188 111.753ZM111.188 111.753L136.898 155.158L154.328 137.97L111.188 111.753ZM111.188 111.753L98.6309 160.598L123.127 160.752L111.188 111.753ZM111.188 111.753L84.9325 154.831L67.7199 137.425L111.188 111.753Z" fill="#FFD640"/>
<path d="M85.4777 68.3478L68.047 85.5355L111.188 111.753L85.4777 68.3478Z" fill="#FFD640"/>
</g>
<path opacity="0.4" d="M149.946 87.093L113.773 65.9343C112.357 65.1061 110.606 65.0951 109.18 65.9055C104.895 68.3402 101.858 70.0654 100.071 71.081C96.3505 73.1946 93.3141 74.9198 90.9613 76.2566C86.9127 78.5568 80.8399 82.0072 72.7428 86.6077" stroke="white" stroke-linecap="round"/>
<path d="M109.18 65.9052C104.894 68.34 101.858 70.0652 100.071 71.0808" stroke="white" stroke-linecap="round"/>
<path opacity="0.4" d="M149.633 136.793L113.196 157.495C111.769 158.305 110.018 158.294 108.603 157.466" stroke="white" stroke-linecap="round"/>
</g>
<g filter="url(#filter8_d_231_1027)">
<mask id="path-50-outside-3_231_1027" maskUnits="userSpaceOnUse" x="81.4594" y="106.509" width="60.2005" height="32.3765" fill="black">
<rect fill="white" x="81.4594" y="106.509" width="60.2005" height="32.3765"/>
<path fill-rule="evenodd" clip-rule="evenodd" d="M138.766 108.868L111.034 136.214L83.6484 108.522L138.766 108.868Z"/>
</mask>
<path fill-rule="evenodd" clip-rule="evenodd" d="M138.766 108.868L111.034 136.214L83.6484 108.522L138.766 108.868Z" fill="white"/>
<path d="M138.766 108.868L140.17 110.293C140.746 109.724 140.923 108.865 140.619 108.115C140.314 107.366 139.587 106.874 138.778 106.868L138.766 108.868ZM111.034 136.214L109.611 137.62C110.387 138.405 111.652 138.413 112.438 137.638L111.034 136.214ZM83.6484 108.522L83.661 106.522C82.8519 106.517 82.1194 107 81.8053 107.746C81.4912 108.491 81.6574 109.353 82.2264 109.928L83.6484 108.522ZM137.361 107.444L109.629 134.79L112.438 137.638L140.17 110.293L137.361 107.444ZM112.456 134.808L85.0705 107.116L82.2264 109.928L109.611 137.62L112.456 134.808ZM83.6358 110.522L138.753 110.868L138.778 106.868L83.661 106.522L83.6358 110.522Z" fill="white" mask="url(#path-50-outside-3_231_1027)"/>
</g>
<path fill-rule="evenodd" clip-rule="evenodd" d="M111.034 136.214L138.766 108.868L83.6484 108.522L111.034 136.214Z" fill="url(#paint31_linear_231_1027)"/>
<path fill-rule="evenodd" clip-rule="evenodd" d="M111.033 136.214L102.021 108.638L120.393 108.753L111.033 136.214Z" fill="url(#paint32_linear_231_1027)"/>
<g filter="url(#filter9_d_231_1027)">
<path fill-rule="evenodd" clip-rule="evenodd" d="M144.718 92.9443L143.132 92.3081C142.162 91.9189 141.691 90.8181 142.081 89.8494C142.277 89.3634 142.665 88.9802 143.154 88.7911L144.748 88.1748C146.587 87.4641 148.048 86.0237 148.782 84.1971L149.42 82.6131C149.809 81.6443 150.912 81.1744 151.882 81.5636C152.369 81.7588 152.752 82.1468 152.942 82.6352L153.559 84.2271C154.271 86.0629 155.713 87.5215 157.542 88.2553L159.129 88.8915C160.099 89.2807 160.569 90.3815 160.18 91.3502C159.984 91.8362 159.596 92.2194 159.106 92.4085L157.512 93.0248C155.674 93.7355 154.213 95.1759 153.478 97.0025L152.841 98.5865C152.451 99.5553 151.349 100.025 150.379 99.636C149.892 99.4408 149.508 99.0528 149.319 98.5644L148.702 96.9725C147.99 95.1367 146.548 93.6781 144.718 92.9443Z" fill="white"/>
</g>
<g filter="url(#filter10_d_231_1027)">
<path fill-rule="evenodd" clip-rule="evenodd" d="M82.2435 140.681L81.186 140.256C80.5392 139.997 80.2255 139.263 80.4853 138.617C80.6157 138.293 80.8747 138.038 81.2008 137.912L82.2636 137.501C83.4892 137.027 84.463 136.067 84.9529 134.849L85.3777 133.793C85.6375 133.147 86.3724 132.834 87.0192 133.093C87.3437 133.224 87.5995 133.482 87.7257 133.808L88.1372 134.869C88.6117 136.093 89.5733 137.065 90.7929 137.555L91.8504 137.979C92.4972 138.238 92.8109 138.972 92.5511 139.618C92.4208 139.942 92.1617 140.197 91.8356 140.323L90.7728 140.734C89.5472 141.208 88.5734 142.168 88.0835 143.386L87.6587 144.442C87.3989 145.088 86.664 145.401 86.0172 145.142C85.6927 145.012 85.4369 144.753 85.3107 144.427L84.8992 143.366C84.4247 142.142 83.4631 141.17 82.2435 140.681Z" fill="white"/>
</g>
<g filter="url(#filter11_d_231_1027)">
<path fill-rule="evenodd" clip-rule="evenodd" d="M64.6133 96.6299L63.2914 96.0997C62.4829 95.7754 62.0907 94.858 62.4155 94.0507C62.5784 93.6458 62.9023 93.3264 63.3098 93.1689L64.6383 92.6553C66.1703 92.0631 67.3876 90.8627 68 89.3405L68.531 88.0205C68.8557 87.2132 69.7744 86.8216 70.5829 87.1459C70.9884 87.3086 71.3082 87.632 71.466 88.039L71.9803 89.3655C72.5734 90.8953 73.7755 92.1109 75.2999 92.7223L76.6218 93.2525C77.4303 93.5768 77.8225 94.4942 77.4977 95.3015C77.3348 95.7064 77.0109 96.0258 76.6034 96.1833L75.2749 96.6969C73.7429 97.2891 72.5256 98.4895 71.9132 100.012L71.3822 101.332C71.0575 102.139 70.1388 102.531 69.3303 102.206C68.9248 102.044 68.605 101.72 68.4472 101.313L67.9329 99.9867C67.3398 98.4569 66.1377 97.2413 64.6133 96.6299Z" fill="white"/>
</g>
<g filter="url(#filter12_d_231_1027)">
<path fill-rule="evenodd" clip-rule="evenodd" d="M143.012 142.194L142.219 141.876C141.734 141.682 141.499 141.131 141.694 140.647C141.792 140.404 141.986 140.212 142.23 140.118L143.028 139.81C143.947 139.454 144.677 138.734 145.045 137.821L145.363 137.029C145.558 136.544 146.109 136.309 146.594 136.504C146.838 136.602 147.029 136.796 147.124 137.04L147.433 137.836C147.789 138.754 148.51 139.483 149.424 139.85L150.218 140.168C150.703 140.363 150.938 140.913 150.743 141.397C150.645 141.64 150.451 141.832 150.207 141.926L149.409 142.235C148.49 142.59 147.76 143.31 147.392 144.223L147.074 145.015C146.879 145.5 146.328 145.735 145.843 145.54C145.599 145.443 145.408 145.249 145.313 145.004L145.004 144.208C144.648 143.291 143.927 142.561 143.012 142.194Z" fill="white"/>
</g>
<mask id="path-58-outside-4_231_1027" maskUnits="userSpaceOnUse" x="80.1358" y="76.9856" width="60.2047" height="32.3831" fill="black">
<rect fill="white" x="80.1358" y="76.9856" width="60.2047" height="32.3831"/>
<path fill-rule="evenodd" clip-rule="evenodd" d="M83.0406 106.991L110.778 79.6729L138.147 107.356L83.0406 106.991Z"/>
</mask>
<path fill-rule="evenodd" clip-rule="evenodd" d="M83.0406 106.991L110.778 79.6729L138.147 107.356L83.0406 106.991Z" fill="white"/>
<path d="M83.0406 106.991L81.6372 105.566C81.0606 106.134 80.883 106.993 81.1874 107.743C81.4917 108.493 82.218 108.985 83.0272 108.991L83.0406 106.991ZM110.778 79.6729L112.2 78.2668C111.424 77.4824 110.16 77.474 109.374 78.248L110.778 79.6729ZM138.147 107.356L138.134 109.356C138.943 109.361 139.676 108.878 139.99 108.133C140.305 107.387 140.139 106.525 139.57 105.95L138.147 107.356ZM84.444 108.416L112.181 81.0978L109.374 78.248L81.6372 105.566L84.444 108.416ZM109.355 81.0791L136.725 108.762L139.57 105.95L112.2 78.2668L109.355 81.0791ZM138.161 105.356L83.0539 104.991L83.0272 108.991L138.134 109.356L138.161 105.356Z" fill="white" mask="url(#path-58-outside-4_231_1027)"/>
<path fill-rule="evenodd" clip-rule="evenodd" d="M111.751 81.6476L84.0172 108.984L139.131 109.337L111.751 81.6476Z" fill="url(#paint33_linear_231_1027)"/>
<path fill-rule="evenodd" clip-rule="evenodd" d="M111.175 81.6423L120.183 109.218L101.814 109.1L111.175 81.6423Z" fill="url(#paint34_linear_231_1027)"/>
<defs>
<filter id="filter0_d_231_1027" x="59.6465" y="102.272" width="53.5996" height="101.53" filterUnits="userSpaceOnUse" color-interpolation-filters="sRGB">
<feFlood flood-opacity="0" result="BackgroundImageFix"/>
<feColorMatrix in="SourceAlpha" type="matrix" values="0 0 0 0 0 0 0 0 0 0 0 0 0 0 0 0 0 0 127 0" result="hardAlpha"/>
<feOffset dy="2"/>
<feGaussianBlur stdDeviation="1"/>
<feColorMatrix type="matrix" values="0 0 0 0 0.61352 0 0 0 0 0.61352 0 0 0 0 0.61352 0 0 0 0.2 0"/>
<feBlend mode="darken" in2="BackgroundImageFix" result="effect1_dropShadow_231_1027"/>
<feBlend mode="normal" in="SourceGraphic" in2="effect1_dropShadow_231_1027" result="shape"/>
</filter>
<filter id="filter1_d_231_1027" x="71.8369" y="111.522" width="53.5996" height="101.53" filterUnits="userSpaceOnUse" color-interpolation-filters="sRGB">
<feFlood flood-opacity="0" result="BackgroundImageFix"/>
<feColorMatrix in="SourceAlpha" type="matrix" values="0 0 0 0 0 0 0 0 0 0 0 0 0 0 0 0 0 0 127 0" result="hardAlpha"/>
<feOffset dy="2"/>
<feGaussianBlur stdDeviation="1"/>
<feColorMatrix type="matrix" values="0 0 0 0 0.61352 0 0 0 0 0.61352 0 0 0 0 0.61352 0 0 0 0.2 0"/>
<feBlend mode="darken" in2="BackgroundImageFix" result="effect1_dropShadow_231_1027"/>
<feBlend mode="normal" in="SourceGraphic" in2="effect1_dropShadow_231_1027" result="shape"/>
</filter>
<filter id="filter2_d_231_1027" x="108.64" y="102.58" width="53.5996" height="101.53" filterUnits="userSpaceOnUse" color-interpolation-filters="sRGB">
<feFlood flood-opacity="0" result="BackgroundImageFix"/>
<feColorMatrix in="SourceAlpha" type="matrix" values="0 0 0 0 0 0 0 0 0 0 0 0 0 0 0 0 0 0 127 0" result="hardAlpha"/>
<feOffset dy="2"/>
<feGaussianBlur stdDeviation="1"/>
<feColorMatrix type="matrix" values="0 0 0 0 0.61352 0 0 0 0 0.61352 0 0 0 0 0.61352 0 0 0 0.2 0"/>
<feBlend mode="darken" in2="BackgroundImageFix" result="effect1_dropShadow_231_1027"/>
<feBlend mode="normal" in="SourceGraphic" in2="effect1_dropShadow_231_1027" result="shape"/>
</filter>
<filter id="filter3_d_231_1027" x="96.333" y="111.676" width="53.5996" height="101.53" filterUnits="userSpaceOnUse" color-interpolation-filters="sRGB">
<feFlood flood-opacity="0" result="BackgroundImageFix"/>
<feColorMatrix in="SourceAlpha" type="matrix" values="0 0 0 0 0 0 0 0 0 0 0 0 0 0 0 0 0 0 127 0" result="hardAlpha"/>
<feOffset dy="2"/>
<feGaussianBlur stdDeviation="1"/>
<feColorMatrix type="matrix" values="0 0 0 0 0.61352 0 0 0 0 0.61352 0 0 0 0 0.61352 0 0 0 0.2 0"/>
<feBlend mode="darken" in2="BackgroundImageFix" result="effect1_dropShadow_231_1027"/>
<feBlend mode="normal" in="SourceGraphic" in2="effect1_dropShadow_231_1027" result="shape"/>
</filter>
<filter id="filter4_d_231_1027" x="84.0469" y="117.714" width="53.5996" height="101.53" filterUnits="userSpaceOnUse" color-interpolation-filters="sRGB">
<feFlood flood-opacity="0" result="BackgroundImageFix"/>
<feColorMatrix in="SourceAlpha" type="matrix" values="0 0 0 0 0 0 0 0 0 0 0 0 0 0 0 0 0 0 127 0" result="hardAlpha"/>
<feOffset dy="2"/>
<feGaussianBlur stdDeviation="1"/>
<feColorMatrix type="matrix" values="0 0 0 0 0.61352 0 0 0 0 0.61352 0 0 0 0 0.61352 0 0 0 0.2 0"/>
<feBlend mode="darken" in2="BackgroundImageFix" result="effect1_dropShadow_231_1027"/>
<feBlend mode="normal" in="SourceGraphic" in2="effect1_dropShadow_231_1027" result="shape"/>
</filter>
<filter id="filter5_i_231_1027" x="55.7939" y="137.807" width="110.339" height="50.4609" filterUnits="userSpaceOnUse" color-interpolation-filters="sRGB">
<feFlood flood-opacity="0" result="BackgroundImageFix"/>
<feBlend mode="normal" in="SourceGraphic" in2="BackgroundImageFix" result="shape"/>
<feColorMatrix in="SourceAlpha" type="matrix" values="0 0 0 0 0 0 0 0 0 0 0 0 0 0 0 0 0 0 127 0" result="hardAlpha"/>
<feOffset dy="1"/>
<feGaussianBlur stdDeviation="0.5"/>
<feComposite in2="hardAlpha" operator="arithmetic" k2="-1" k3="1"/>
<feColorMatrix type="matrix" values="0 0 0 0 0.929412 0 0 0 0 0.568627 0 0 0 0 0 0 0 0 0.5 0"/>
<feBlend mode="normal" in2="shape" result="effect1_innerShadow_231_1027"/>
</filter>
<filter id="filter6_di_231_1027" x="53.1172" y="51.8341" width="116.143" height="120.637" filterUnits="userSpaceOnUse" color-interpolation-filters="sRGB">
<feFlood flood-opacity="0" result="BackgroundImageFix"/>
<feColorMatrix in="SourceAlpha" type="matrix" values="0 0 0 0 0 0 0 0 0 0 0 0 0 0 0 0 0 0 127 0" result="hardAlpha"/>
<feOffset dy="0.4"/>
<feGaussianBlur stdDeviation="0.5"/>
<feColorMatrix type="matrix" values="0 0 0 0 1 0 0 0 0 0.909804 0 0 0 0 0.556863 0 0 0 0.4 0"/>
<feBlend mode="normal" in2="BackgroundImageFix" result="effect1_dropShadow_231_1027"/>
<feBlend mode="normal" in="SourceGraphic" in2="effect1_dropShadow_231_1027" result="shape"/>
<feColorMatrix in="SourceAlpha" type="matrix" values="0 0 0 0 0 0 0 0 0 0 0 0 0 0 0 0 0 0 127 0" result="hardAlpha"/>
<feOffset dy="1"/>
<feGaussianBlur stdDeviation="0.5"/>
<feComposite in2="hardAlpha" operator="arithmetic" k2="-1" k3="1"/>
<feColorMatrix type="matrix" values="0 0 0 0 0.31048 0 0 0 0 0.31048 0 0 0 0 0.279572 0 0 0 1 0"/>
<feBlend mode="normal" in2="shape" result="effect2_innerShadow_231_1027"/>
</filter>
<filter id="filter7_d_231_1027" x="65.6113" y="61.1392" width="91.1523" height="103.227" filterUnits="userSpaceOnUse" color-interpolation-filters="sRGB">
<feFlood flood-opacity="0" result="BackgroundImageFix"/>
<feColorMatrix in="SourceAlpha" type="matrix" values="0 0 0 0 0 0 0 0 0 0 0 0 0 0 0 0 0 0 127 0" result="hardAlpha"/>
<feOffset dy="1"/>
<feGaussianBlur stdDeviation="1"/>
<feColorMatrix type="matrix" values="0 0 0 0 0.927721 0 0 0 0 0.665867 0 0 0 0 0.0535899 0 0 0 0.4 0"/>
<feBlend mode="normal" in2="BackgroundImageFix" result="effect1_dropShadow_231_1027"/>
<feBlend mode="normal" in="SourceGraphic" in2="effect1_dropShadow_231_1027" result="shape"/>
</filter>
<filter id="filter8_d_231_1027" x="79.6484" y="105.522" width="63.1172" height="35.6919" filterUnits="userSpaceOnUse" color-interpolation-filters="sRGB">
<feFlood flood-opacity="0" result="BackgroundImageFix"/>
<feColorMatrix in="SourceAlpha" type="matrix" values="0 0 0 0 0 0 0 0 0 0 0 0 0 0 0 0 0 0 127 0" result="hardAlpha"/>
<feOffset dy="1"/>
<feGaussianBlur stdDeviation="1"/>
<feColorMatrix type="matrix" values="0 0 0 0 0.996078 0 0 0 0 0.733333 0 0 0 0 0.105882 0 0 0 1 0"/>
<feBlend mode="normal" in2="BackgroundImageFix" result="effect1_dropShadow_231_1027"/>
<feBlend mode="normal" in="SourceGraphic" in2="effect1_dropShadow_231_1027" result="shape"/>
</filter>
<filter id="filter9_d_231_1027" x="139.944" y="79.4268" width="22.3721" height="22.3462" filterUnits="userSpaceOnUse" color-interpolation-filters="sRGB">
<feFlood flood-opacity="0" result="BackgroundImageFix"/>
<feColorMatrix in="SourceAlpha" type="matrix" values="0 0 0 0 0 0 0 0 0 0 0 0 0 0 0 0 0 0 127 0" result="hardAlpha"/>
<feOffset/>
<feGaussianBlur stdDeviation="1"/>
<feColorMatrix type="matrix" values="0 0 0 0 1 0 0 0 0 0.94902 0 0 0 0 0.305882 0 0 0 1 0"/>
<feBlend mode="normal" in2="BackgroundImageFix" result="effect1_dropShadow_231_1027"/>
<feBlend mode="normal" in="SourceGraphic" in2="effect1_dropShadow_231_1027" result="shape"/>
</filter>
<filter id="filter10_d_231_1027" x="78.3936" y="131.002" width="16.249" height="16.2305" filterUnits="userSpaceOnUse" color-interpolation-filters="sRGB">
<feFlood flood-opacity="0" result="BackgroundImageFix"/>
<feColorMatrix in="SourceAlpha" type="matrix" values="0 0 0 0 0 0 0 0 0 0 0 0 0 0 0 0 0 0 127 0" result="hardAlpha"/>
<feOffset/>
<feGaussianBlur stdDeviation="1"/>
<feColorMatrix type="matrix" values="0 0 0 0 1 0 0 0 0 0.94902 0 0 0 0 0.305882 0 0 0 1 0"/>
<feBlend mode="normal" in2="BackgroundImageFix" result="effect1_dropShadow_231_1027"/>
<feBlend mode="normal" in="SourceGraphic" in2="effect1_dropShadow_231_1027" result="shape"/>
</filter>
<filter id="filter11_d_231_1027" x="60.3018" y="85.0317" width="19.3096" height="19.2886" filterUnits="userSpaceOnUse" color-interpolation-filters="sRGB">
<feFlood flood-opacity="0" result="BackgroundImageFix"/>
<feColorMatrix in="SourceAlpha" type="matrix" values="0 0 0 0 0 0 0 0 0 0 0 0 0 0 0 0 0 0 127 0" result="hardAlpha"/>
<feOffset/>
<feGaussianBlur stdDeviation="1"/>
<feColorMatrix type="matrix" values="0 0 0 0 1 0 0 0 0 0.94902 0 0 0 0 0.305882 0 0 0 1 0"/>
<feBlend mode="normal" in2="BackgroundImageFix" result="effect1_dropShadow_231_1027"/>
<feBlend mode="normal" in="SourceGraphic" in2="effect1_dropShadow_231_1027" result="shape"/>
</filter>
<filter id="filter12_d_231_1027" x="139.625" y="134.436" width="13.1865" height="13.1729" filterUnits="userSpaceOnUse" color-interpolation-filters="sRGB">
<feFlood flood-opacity="0" result="BackgroundImageFix"/>
<feColorMatrix in="SourceAlpha" type="matrix" values="0 0 0 0 0 0 0 0 0 0 0 0 0 0 0 0 0 0 127 0" result="hardAlpha"/>
<feOffset/>
<feGaussianBlur stdDeviation="1"/>
<feColorMatrix type="matrix" values="0 0 0 0 1 0 0 0 0 0.94902 0 0 0 0 0.305882 0 0 0 1 0"/>
<feBlend mode="normal" in2="BackgroundImageFix" result="effect1_dropShadow_231_1027"/>
<feBlend mode="normal" in="SourceGraphic" in2="effect1_dropShadow_231_1027" result="shape"/>
</filter>
<linearGradient id="paint0_linear_231_1027" x1="12.2485" y1="0" x2="12.2485" y2="97.8464" gradientUnits="userSpaceOnUse">
<stop/>
<stop offset="1" stop-color="#666666"/>
</linearGradient>
<linearGradient id="paint1_linear_231_1027" x1="19.6656" y1="59.4589" x2="19.1843" y2="136.015" gradientUnits="userSpaceOnUse">
<stop stop-color="#75756F"/>
<stop offset="1" stop-color="#3A342A"/>
</linearGradient>
<linearGradient id="paint2_linear_231_1027" x1="43.7881" y1="105.183" x2="43.5933" y2="136.168" gradientUnits="userSpaceOnUse">
<stop stop-color="#FFDF6B"/>
<stop offset="1" stop-color="#F8A60A"/>
</linearGradient>
<linearGradient id="paint3_linear_231_1027" x1="13.4279" y1="59.0888" x2="12.9453" y2="135.859" gradientUnits="userSpaceOnUse">
<stop stop-color="#75756F"/>
<stop offset="1" stop-color="#3A342A"/>
</linearGradient>
<linearGradient id="paint4_linear_231_1027" x1="37.7598" y1="89.856" x2="37.565" y2="120.841" gradientUnits="userSpaceOnUse">
<stop stop-color="#FFDF6B"/>
<stop offset="1" stop-color="#F8A60A"/>
</linearGradient>
<linearGradient id="paint5_linear_231_1027" x1="7.12285" y1="58.9442" x2="6.63814" y2="136.054" gradientUnits="userSpaceOnUse">
<stop stop-color="#75756F"/>
<stop offset="1" stop-color="#3A342A"/>
</linearGradient>
<linearGradient id="paint6_linear_231_1027" x1="31.7324" y1="74.5293" x2="31.5376" y2="105.515" gradientUnits="userSpaceOnUse">
<stop stop-color="#FFDF6B"/>
<stop offset="1" stop-color="#F8A60A"/>
</linearGradient>
<linearGradient id="paint7_linear_231_1027" x1="1.08312" y1="59.0477" x2="0.599406" y2="135.999" gradientUnits="userSpaceOnUse">
<stop stop-color="#75756F"/>
<stop offset="1" stop-color="#3A342A"/>
</linearGradient>
<linearGradient id="paint8_linear_231_1027" x1="25.7047" y1="59.2025" x2="25.51" y2="90.1878" gradientUnits="userSpaceOnUse">
<stop stop-color="#FFDF6B"/>
<stop offset="1" stop-color="#F8A60A"/>
</linearGradient>
<linearGradient id="paint9_linear_231_1027" x1="203.364" y1="60.6134" x2="202.883" y2="137.169" gradientUnits="userSpaceOnUse">
<stop stop-color="#75756F"/>
<stop offset="1" stop-color="#3A342A"/>
</linearGradient>
<linearGradient id="paint10_linear_231_1027" x1="178.667" y1="106.03" x2="178.472" y2="137.016" gradientUnits="userSpaceOnUse">
<stop stop-color="#FFDF6B"/>
<stop offset="1" stop-color="#F8A60A"/>
</linearGradient>
<linearGradient id="paint11_linear_231_1027" x1="209.605" y1="60.3219" x2="209.122" y2="137.092" gradientUnits="userSpaceOnUse">
<stop stop-color="#75756F"/>
<stop offset="1" stop-color="#3A342A"/>
</linearGradient>
<linearGradient id="paint12_linear_231_1027" x1="184.887" y1="90.7808" x2="184.692" y2="121.766" gradientUnits="userSpaceOnUse">
<stop stop-color="#FFDF6B"/>
<stop offset="1" stop-color="#F8A60A"/>
</linearGradient>
<linearGradient id="paint13_linear_231_1027" x1="215.912" y1="60.2563" x2="215.427" y2="137.366" gradientUnits="userSpaceOnUse">
<stop stop-color="#75756F"/>
<stop offset="1" stop-color="#3A342A"/>
</linearGradient>
<linearGradient id="paint14_linear_231_1027" x1="191.107" y1="75.5308" x2="190.913" y2="106.516" gradientUnits="userSpaceOnUse">
<stop stop-color="#FFDF6B"/>
<stop offset="1" stop-color="#F8A60A"/>
</linearGradient>
<linearGradient id="paint15_linear_231_1027" x1="221.95" y1="60.436" x2="221.466" y2="137.387" gradientUnits="userSpaceOnUse">
<stop stop-color="#75756F"/>
<stop offset="1" stop-color="#3A342A"/>
</linearGradient>
<linearGradient id="paint16_linear_231_1027" x1="197.328" y1="60.2812" x2="197.133" y2="91.2666" gradientUnits="userSpaceOnUse">
<stop stop-color="#FFDF6B"/>
<stop offset="1" stop-color="#F8A60A"/>
</linearGradient>
<linearGradient id="paint17_linear_231_1027" x1="41.1191" y1="129.659" x2="40.9466" y2="157.109" gradientUnits="userSpaceOnUse">
<stop stop-color="#75756F"/>
<stop offset="1" stop-color="#3A342A"/>
</linearGradient>
<linearGradient id="paint18_linear_231_1027" x1="41.1191" y1="129.659" x2="40.9466" y2="157.109" gradientUnits="userSpaceOnUse">
<stop stop-color="#FFDF6B"/>
<stop offset="1" stop-color="#F8A60A"/>
</linearGradient>
<linearGradient id="paint19_linear_231_1027" x1="181.5" y1="130.541" x2="181.317" y2="159.589" gradientUnits="userSpaceOnUse">
<stop stop-color="#75756F"/>
<stop offset="1" stop-color="#3A342A"/>
</linearGradient>
<linearGradient id="paint20_linear_231_1027" x1="181.5" y1="130.541" x2="181.317" y2="159.589" gradientUnits="userSpaceOnUse">
<stop stop-color="#FFDF6B"/>
<stop offset="1" stop-color="#F8A60A"/>
</linearGradient>
<linearGradient id="paint21_linear_231_1027" x1="84.1113" y1="35.1382" x2="83.9866" y2="54.9741" gradientUnits="userSpaceOnUse">
<stop stop-color="#75756F"/>
<stop offset="1" stop-color="#3A342A"/>
</linearGradient>
<linearGradient id="paint22_linear_231_1027" x1="84.1113" y1="35.1382" x2="83.9866" y2="54.9741" gradientUnits="userSpaceOnUse">
<stop stop-color="#FFDF6B"/>
<stop offset="1" stop-color="#F8A60A"/>
</linearGradient>
<linearGradient id="paint23_linear_231_1027" x1="55.8955" y1="139.318" x2="55.6083" y2="185.009" gradientUnits="userSpaceOnUse">
<stop stop-color="#F39C05"/>
<stop offset="1" stop-color="#F59100"/>
</linearGradient>
<linearGradient id="paint24_linear_231_1027" x1="55.8955" y1="139.318" x2="55.6083" y2="185.009" gradientUnits="userSpaceOnUse">
<stop stop-color="#FFBA45"/>
<stop offset="1" stop-color="#F59100"/>
</linearGradient>
<linearGradient id="paint25_linear_231_1027" x1="62.7012" y1="31.1846" x2="62.3751" y2="83.0606" gradientUnits="userSpaceOnUse">
<stop stop-color="#75756F"/>
<stop offset="1" stop-color="#3A342A"/>
</linearGradient>
<linearGradient id="paint26_linear_231_1027" x1="62.7012" y1="31.1846" x2="62.3751" y2="83.0606" gradientUnits="userSpaceOnUse">
<stop stop-color="#FFDF6B"/>
<stop offset="1" stop-color="#F8A60A"/>
</linearGradient>
<linearGradient id="paint27_linear_231_1027" x1="123.942" y1="31.5693" x2="123.616" y2="83.4454" gradientUnits="userSpaceOnUse">
<stop stop-color="#75756F"/>
<stop offset="1" stop-color="#3A342A"/>
</linearGradient>
<linearGradient id="paint28_linear_231_1027" x1="123.942" y1="31.5693" x2="123.616" y2="83.4454" gradientUnits="userSpaceOnUse">
<stop stop-color="#FFDF6B"/>
<stop offset="1" stop-color="#F8A60A"/>
</linearGradient>
<linearGradient id="paint29_linear_231_1027" x1="41.2041" y1="40.9844" x2="40.32" y2="181.636" gradientUnits="userSpaceOnUse">
<stop stop-color="#FDE046"/>
<stop offset="1" stop-color="#F9B800"/>
</linearGradient>
<linearGradient id="paint30_linear_231_1027" x1="62.5029" y1="62.5225" x2="61.8879" y2="160.367" gradientUnits="userSpaceOnUse">
<stop stop-color="#FFF550"/>
<stop offset="1" stop-color="#FFD541"/>
</linearGradient>
<linearGradient id="paint31_linear_231_1027" x1="111.034" y1="136.214" x2="111.207" y2="108.695" gradientUnits="userSpaceOnUse">
<stop stop-color="#878787"/>
<stop offset="1" stop-color="#1F1F1F"/>
</linearGradient>
<linearGradient id="paint32_linear_231_1027" x1="120.219" y1="136.272" x2="120.392" y2="108.753" gradientUnits="userSpaceOnUse">
<stop stop-color="#878787"/>
<stop offset="1" stop-color="#4E4E4E"/>
</linearGradient>
<linearGradient id="paint33_linear_231_1027" x1="111.039" y1="77.0779" x2="110.862" y2="104.591" gradientUnits="userSpaceOnUse">
<stop stop-color="#878787"/>
<stop offset="1" stop-color="#1F1F1F"/>
</linearGradient>
<linearGradient id="paint34_linear_231_1027" x1="101.991" y1="81.5835" x2="101.815" y2="109.1" gradientUnits="userSpaceOnUse">
<stop stop-color="#878787"/>
<stop offset="1" stop-color="#4E4E4E"/>
</linearGradient>
</defs>
</svg>
