<svg width="20" height="19" viewBox="0 0 20 19" fill="none" xmlns="http://www.w3.org/2000/svg">
<path d="M5.04812 10.406L8.58313 13.942L7.17013 15.356L8.58512 16.771L7.17112 18.185L4.69613 15.71L1.86713 18.539L0.453125 17.125L3.28212 14.295L0.807125 11.821L2.22113 10.407L3.63513 11.82L5.04812 10.406ZM1.00012 0L4.54612 0.00300002L16.3631 11.821L17.7781 10.407L19.1931 11.821L16.7181 14.296L19.5461 17.125L18.1321 18.539L15.3031 15.71L12.8291 18.185L11.4141 16.771L12.8281 15.356L1.00213 3.531L1.00012 0ZM15.4571 0L19.0001 0.00300002L19.0021 3.526L14.9491 7.578L11.4131 4.043L15.4571 0Z" fill="#F8F8F8"/>
</svg>
