<svg width="17" height="16" viewBox="0 0 17 16" fill="none" xmlns="http://www.w3.org/2000/svg">
<path fill-rule="evenodd" clip-rule="evenodd" d="M4.65802 3.47799C4.65802 2.55557 5.05062 1.67093 5.74946 1.01868C6.4483 0.36643 7.39613 0 8.38443 0C9.37274 0 10.3206 0.36643 11.0194 1.01868C11.7182 1.67093 12.1108 2.55557 12.1108 3.47799C12.1108 4.40041 11.7182 5.28505 11.0194 5.9373C10.3206 6.58954 9.37274 6.95597 8.38443 6.95597C7.39613 6.95597 6.4483 6.58954 5.74946 5.9373C5.05062 5.28505 4.65802 4.40041 4.65802 3.47799ZM4.65802 8.69497C3.42264 8.69497 2.23785 9.15301 1.3643 9.96832C0.490754 10.7836 0 11.8894 0 13.0425C0 13.7343 0.294453 14.3977 0.818581 14.8869C1.34271 15.3761 2.05358 15.6509 2.79481 15.6509H13.9741C14.7153 15.6509 15.4262 15.3761 15.9503 14.8869C16.4744 14.3977 16.7689 13.7343 16.7689 13.0425C16.7689 11.8894 16.2781 10.7836 15.4046 9.96832C14.531 9.15301 13.3462 8.69497 12.1108 8.69497H4.65802Z" fill="white"/>
</svg>
