<svg width="24" height="22" viewBox="0 0 24 22" fill="none" xmlns="http://www.w3.org/2000/svg">
<g clip-path="url(#clip0_565_6388)">
<path fill-rule="evenodd" clip-rule="evenodd" d="M8.65802 9.47799C8.65802 8.55557 9.05062 7.67093 9.74946 7.01868C10.4483 6.36643 11.3961 6 12.3844 6C13.3727 6 14.3206 6.36643 15.0194 7.01868C15.7182 7.67093 16.1108 8.55557 16.1108 9.47799C16.1108 10.4004 15.7182 11.285 15.0194 11.9373C14.3206 12.5895 13.3727 12.956 12.3844 12.956C11.3961 12.956 10.4483 12.5895 9.74946 11.9373C9.05062 11.285 8.65802 10.4004 8.65802 9.47799ZM8.65802 14.695C7.42264 14.695 6.23785 15.153 5.3643 15.9683C4.49075 16.7836 4 17.8894 4 19.0425C4 19.7343 4.29445 20.3977 4.81858 20.8869C5.34271 21.3761 6.05358 21.6509 6.79481 21.6509H17.9741C18.7153 21.6509 19.4262 21.3761 19.9503 20.8869C20.4744 20.3977 20.7689 19.7343 20.7689 19.0425C20.7689 17.8894 20.2781 16.7836 19.4046 15.9683C18.531 15.153 17.3462 14.695 16.1108 14.695H8.65802Z" fill="white"/>
</g>
<defs>
<clipPath id="clip0_565_6388">
<rect width="22.3585" height="20.8679" fill="white" transform="translate(0.886719 0.47168)"/>
</clipPath>
</defs>
</svg>
