<svg width="33" height="35" viewBox="0 0 33 35" fill="none" xmlns="http://www.w3.org/2000/svg">
<mask id="mask0_562_5227" style="mask-type:alpha" maskUnits="userSpaceOnUse" x="0" y="0" width="33" height="35">
<rect x="0.141602" y="0.200012" width="32.5263" height="34" fill="#D9D9D9"/>
</mask>
<g mask="url(#mask0_562_5227)">
<path d="M13.0172 22.8667C10.5552 22.8667 8.47144 21.9754 6.76607 20.1927C5.06069 18.4101 4.20801 16.232 4.20801 13.6583C4.20801 11.0847 5.06069 8.90661 6.76607 7.12397C8.47144 5.34133 10.5552 4.45001 13.0172 4.45001C15.4793 4.45001 17.563 5.34133 19.2684 7.12397C20.9737 8.90661 21.8264 11.0847 21.8264 13.6583C21.8264 14.6972 21.6683 15.6771 21.3521 16.5979C21.0359 17.5188 20.6067 18.3333 20.0646 19.0417L27.6541 26.975C27.9025 27.2347 28.0268 27.5653 28.0268 27.9667C28.0268 28.3681 27.9025 28.6986 27.6541 28.9583C27.4056 29.2181 27.0894 29.3479 26.7054 29.3479C26.3214 29.3479 26.0052 29.2181 25.7567 28.9583L18.1672 21.025C17.4896 21.5917 16.7103 22.0403 15.8294 22.3708C14.9485 22.7014 14.0111 22.8667 13.0172 22.8667ZM13.0172 20.0333C14.7113 20.0333 16.1513 19.4136 17.3371 18.174C18.523 16.9344 19.1159 15.4292 19.1159 13.6583C19.1159 11.8875 18.523 10.3823 17.3371 9.14272C16.1513 7.90314 14.7113 7.28335 13.0172 7.28335C11.3231 7.28335 9.88317 7.90314 8.69732 9.14272C7.51146 10.3823 6.91853 11.8875 6.91853 13.6583C6.91853 15.4292 7.51146 16.9344 8.69732 18.174C9.88317 19.4136 11.3231 20.0333 13.0172 20.0333Z" fill="#640B7A" fill-opacity="0.98"/>
</g>
</svg>
