<svg width="24" height="24" viewBox="0 0 24 24" fill="none" xmlns="http://www.w3.org/2000/svg">
<path d="M7.04812 13.406L10.5831 16.942L9.17013 18.356L10.5851 19.771L9.17112 21.185L6.69613 18.71L3.86713 21.539L2.45312 20.125L5.28212 17.295L2.80712 14.821L4.22113 13.407L5.63513 14.82L7.04812 13.406ZM3.00012 3L6.54612 3.003L18.3631 14.821L19.7781 13.407L21.1931 14.821L18.7181 17.296L21.5461 20.125L20.1321 21.539L17.3031 18.71L14.8291 21.185L13.4141 19.771L14.8281 18.356L3.00213 6.531L3.00012 3ZM17.4571 3L21.0001 3.003L21.0021 6.526L16.9491 10.578L13.4131 7.043L17.4571 3Z" fill="#F8F8F8"/>
</svg>
